<svg width="39" height="37" viewBox="0 0 39 37" fill="none" xmlns="http://www.w3.org/2000/svg">
<circle cx="25.5804" cy="25.0673" r="1.14678" fill="white" stroke="#5F5E5E"/>
<path d="M21.1738 32.3618H34.1914C35.2959 32.3618 36.1914 31.4664 36.1914 30.3618V14.1232C36.1914 13.7433 36.0859 13.3739 35.859 13.0692C34.7886 11.6316 31.1794 7.40342 25.7184 7.34152" stroke="#5F5E5E" stroke-linecap="round"/>
<circle cx="9.84011" cy="27.9944" r="7.53738" stroke="#5F5E5E"/>
<path d="M1.125 29.854H3.75985M1.125 25.9018H3.75985" stroke="white" stroke-width="2" stroke-linecap="round"/>
<line x1="15.0177" y1="19.165" x2="9.58583" y2="20.473" stroke="#5F5E5E" stroke-linecap="round"/>
<line x1="17.9194" y1="21.3671" x2="17.6785" y2="26.949" stroke="#5F5E5E" stroke-linecap="round"/>
<circle cx="35.5294" cy="14.6619" r="2.13485" fill="white" stroke="#5F5E5E"/>
<circle cx="11.816" cy="11.3683" r="1.47614" fill="white" stroke="#5F5E5E"/>
<line x1="17.8634" y1="17.6281" x2="19.4851" y2="19.2499" stroke="#5F5E5E" stroke-linecap="round"/>
<line x1="18.1395" y1="35.0889" x2="36.9582" y2="35.0889" stroke="#5F5E5E" stroke-width="1.4" stroke-linecap="round"/>
<rect x="16.8941" y="14.7554" width="17.7763" height="6.95729" transform="rotate(-49.7332 16.8941 14.7554)" fill="white" stroke="#5F5E5E"/>
<path d="M10.1348 29.2452V26.9734L12.0844 25.8926L14.034 26.9734V29.2452L12.0844 30.3486L10.1348 29.2452Z" stroke="#5F5E5E"/>
<path d="M5.64453 29.2452V26.9734L7.59413 25.8926L9.54372 26.9734V29.2452L7.59413 30.3486L5.64453 29.2452Z" stroke="#5F5E5E"/>
</svg>
