<svg width="62" height="49" viewBox="0 0 62 49" fill="none" xmlns="http://www.w3.org/2000/svg">
<rect x="2.21484" y="46.5762" width="58" height="2" rx="1" fill="#222222"/>
<circle cx="5.52103" cy="37.3697" r="0.7" stroke="#222222" stroke-width="0.665504"/>
<circle cx="10.4555" cy="34.437" r="1.29146" fill="#222222"/>
<circle cx="15.2075" cy="37.1128" r="1.29146" fill="#222222"/>
<circle cx="9.99654" cy="40.0815" r="1.29146" fill="#222222"/>
<circle cx="24.9047" cy="37.02" r="1.29146" fill="#222222"/>
<circle cx="39.2407" cy="33.9975" r="1.29146" fill="#222222"/>
<circle cx="48.5747" cy="40.0825" r="1.29146" fill="#222222"/>
<circle cx="19.9326" cy="40.2109" r="0.64547" fill="#222222"/>
<circle cx="29.6728" cy="33.998" r="0.64547" fill="#222222"/>
<circle cx="39.2392" cy="40.082" r="0.64547" fill="#222222"/>
<circle cx="44.1181" cy="37.1123" r="0.64547" fill="#222222"/>
<circle cx="48.9443" cy="34.3847" r="0.64547" fill="#222222"/>
<circle cx="19.9331" cy="33.9976" r="0.7" stroke="#222222" stroke-width="0.665504"/>
<circle cx="29.2847" cy="39.8228" r="0.7" stroke="#222222" stroke-width="0.665504"/>
<circle cx="34.3433" cy="37.3697" r="0.7" stroke="#222222" stroke-width="0.665504"/>
<circle cx="53.8921" cy="37.3697" r="0.7" stroke="#222222" stroke-width="0.665504"/>
<path d="M1.27344 30.8456L6.17486 26.9247L10.6304 30.8456L20.2546 22.8255L30.2352 30.8456L33.176 27.4593L35.7602 30.8456L40.305 22.0234C40.6912 22.7066 41.7308 23.9483 42.8002 23.4492C43.8695 22.9502 44.9092 23.8948 45.2953 24.4295L48.3252 30.8456C49.0975 29.7168 50.9986 27.4593 52.4244 27.4593C53.8502 27.4593 58.8405 32.6279 61.1574 35.2121" stroke="#222222" stroke-width="1.6" stroke-linecap="round"/>
<path d="M12.748 6.18164L19.7691 14.8357" stroke="#222222" stroke-width="1.4" stroke-linecap="round" stroke-dasharray="2 2"/>
<path d="M35.7356 1.49206C35.7609 1.10629 35.4687 0.773068 35.0829 0.747787L28.7964 0.335821C28.4106 0.31054 28.0774 0.602776 28.0521 0.988548C28.0268 1.37432 28.319 1.70754 28.7048 1.73282L34.2928 2.09902L33.9266 7.68703C33.9014 8.0728 34.1936 8.40603 34.5794 8.43131C34.9651 8.45659 35.2984 8.16435 35.3236 7.77858L35.7356 1.49206ZM19.3083 14.3094C19.0176 14.5643 18.9886 15.0065 19.2435 15.2972C19.4984 15.5879 19.9407 15.6168 20.2314 15.3619L19.3083 14.3094ZM34.5756 0.920007L19.3083 14.3094L20.2314 15.3619L35.4987 1.97257L34.5756 0.920007Z" fill="#222222"/>
<path d="M48.224 5.17556C48.2617 4.7908 47.9802 4.44838 47.5955 4.41075L41.3254 3.7975C40.9406 3.75987 40.5982 4.04127 40.5606 4.42603C40.523 4.8108 40.8044 5.15322 41.1891 5.19085L46.7625 5.73596L46.2174 11.3094C46.1798 11.6941 46.4612 12.0365 46.846 12.0742C47.2307 12.1118 47.5731 11.8304 47.6108 11.4456L48.224 5.17556ZM35.2449 14.2952C34.9463 14.5407 34.9031 14.9818 35.1486 15.2805C35.394 15.5792 35.8352 15.6223 36.1338 15.3768L35.2449 14.2952ZM47.0829 4.56662L35.2449 14.2952L36.1338 15.3768L47.9718 5.64823L47.0829 4.56662Z" fill="#222222"/>
<path d="M29.5586 7.39648L35.6899 14.8362" stroke="#222222" stroke-width="1.4" stroke-linecap="round" stroke-dasharray="2 2"/>
</svg>
