<svg width="37" height="36" viewBox="0 0 37 36" fill="none" xmlns="http://www.w3.org/2000/svg">
<path d="M18.9423 4.26985L33.5228 9.63164V26.3551L18.7878 32.2187L4.05273 26.3551V9.6341L11.4179 6.98067L18.9423 4.26985Z" fill="white" stroke="#5F5E5E"/>
<path d="M18.8145 29.759L18.8145 5.8182" stroke="#5F5E5E" stroke-linecap="round"/>
<path d="M16.123 12.9063L5.55396 10.3148" stroke="#5F5E5E" stroke-linecap="round"/>
<path d="M18.6897 25.1438L12.2149 18.669L15.489 15.3947L15.489 15.3947L18.6897 12.1942L25.1644 18.669L21.9639 21.8695L18.6897 25.1438Z" stroke="#5F5E5E"/>
<path d="M28.2734 20.2061L32.2492 24.5911" stroke="#5F5E5E" stroke-linecap="round"/>
<path d="M28.1534 16.2583L32.4798 12.2188" stroke="#5F5E5E" stroke-linecap="round"/>
<path d="M9.05265 16.0566L5.07004 11.6777" stroke="#5F5E5E" stroke-linecap="round"/>
<path d="M9.49726 20.4091L5.42967 24.7092" stroke="#5F5E5E" stroke-linecap="round"/>
<path d="M16.2676 24.4315L5.43175 25.4347" stroke="#5F5E5E" stroke-linecap="round"/>
<path d="M32.248 25.0502L21.3684 24.8148" stroke="#5F5E5E" stroke-linecap="round"/>
<path d="M32.2383 11.0978L21.5074 12.9061" stroke="#5F5E5E" stroke-linecap="round"/>
<circle cx="26.7671" cy="18.2091" r="2.40191" fill="white" stroke="#5F5E5E"/>
<circle cx="10.8062" cy="18.2091" r="2.40191" fill="white" stroke="#5F5E5E"/>
<circle cx="18.7867" cy="12.4054" r="2.40191" fill="white" stroke="#5F5E5E"/>
<circle cx="18.7867" cy="24.0128" r="2.40191" fill="white" stroke="#5F5E5E"/>
<circle cx="34.023" cy="26.9149" r="2.40191" fill="white" stroke="#5F5E5E"/>
<circle cx="34.023" cy="9.50338" r="2.40191" fill="white" stroke="#5F5E5E"/>
<circle cx="3.5523" cy="26.9149" r="2.40191" fill="white" stroke="#5F5E5E"/>
<circle cx="18.7867" cy="32.7186" r="2.40191" fill="white" stroke="#5F5E5E"/>
<circle cx="18.7867" cy="3.69961" r="2.40191" fill="white" stroke="#5F5E5E"/>
<circle cx="3.5523" cy="9.50338" r="2.40191" fill="white" stroke="#5F5E5E"/>
</svg>
