<svg width="34" height="37" viewBox="0 0 34 37" fill="none" xmlns="http://www.w3.org/2000/svg">
<rect x="7.11523" y="0.637543" width="25.9621" height="34.0507" rx="1.5" fill="white" stroke="#5F5E5E"/>
<path d="M2.21484 35.0316L11.4456 35.0316L11.4456 19.9957L9.13793 19.9957L9.13793 17.4898L4.52254 17.4898L4.52254 19.9957L2.21484 19.9957L2.21484 35.0316Z" fill="white"/>
<path d="M4.52194 15.9691L9.13709 15.9691C9.50106 15.9697 9.85273 16.1269 10.1142 16.4108C10.376 16.6951 10.5252 17.083 10.5258 17.49L10.5258 18.3251L10.5258 18.4751L10.6758 18.4751L11.4448 18.4751C11.8088 18.4757 12.1604 18.6329 12.4219 18.9168C12.6837 19.2011 12.8329 19.589 12.8335 19.996L12.8335 35.0316C12.8335 35.4387 12.6845 35.8269 12.4225 36.1113C12.161 36.3953 11.8091 36.5523 11.445 36.5523L2.21425 36.5523C1.85018 36.5523 1.49825 36.3953 1.23673 36.1113C0.974823 35.8269 0.825781 35.4387 0.825781 35.0316L0.825781 19.9958C0.825781 19.5887 0.974822 19.2005 1.23673 18.9161C1.49825 18.6321 1.85018 18.4751 2.21424 18.4751L2.98348 18.4751L3.13348 18.4751L3.13348 18.3251L3.13348 17.4898C3.13348 17.0827 3.28252 16.6945 3.54442 16.4101C3.80595 16.1261 4.15787 15.9691 4.52194 15.9691ZM2.06425 35.0316L2.06425 35.1816L2.21425 35.1816L11.445 35.1816L11.595 35.1816L11.595 35.0316L11.595 19.9958L11.595 19.8458L11.445 19.8458L9.28733 19.8458L9.28733 17.4898L9.28733 17.3398L9.13733 17.3398L4.52194 17.3398L4.37194 17.3398L4.37194 17.4898L4.37194 19.8458L2.21424 19.8458L2.06424 19.8458L2.06424 19.9958L2.06425 35.0316Z" fill="#5F5E5E" stroke="white" stroke-width="0.3"/>
<path d="M3.90195 31.8403L9.75581 31.8403L9.75581 33.211L3.90195 33.211L3.90195 31.8403Z" fill="#5F5E5E" stroke="white" stroke-width="0.3"/>
<path d="M7.98932 22.7085L4.87891 26.3971H7.98932L4.87891 29.8377" stroke="#5F5E5E"/>
<circle cx="27.3648" cy="12.0233" r="1.18513" stroke="#5F5E5E"/>
<circle cx="23.4664" cy="15.8995" r="1.18513" stroke="#5F5E5E"/>
<circle cx="19.4234" cy="11.8552" r="1.18513" stroke="#5F5E5E"/>
<path d="M20.6035 12.9249L22.2073 14.6551" stroke="#5F5E5E" stroke-linecap="round"/>
<path d="M24.9824 14.9465L26.3774 13.4825" stroke="#5F5E5E" stroke-linecap="round"/>
<path d="M17.0586 14.655L18.4169 13.157" stroke="#5F5E5E" stroke-linecap="round"/>
<circle cx="16.0523" cy="15.8995" r="1.18513" stroke="#5F5E5E"/>
<path d="M26.6699 30.2557L26.6699 22.1671" stroke="#5F5E5E" stroke-linecap="round"/>
<path d="M20.6035 30.2557L20.6035 20.819" stroke="#5F5E5E" stroke-linecap="round"/>
<path d="M23.3008 30.2557L23.3008 24.8633" stroke="#5F5E5E" stroke-linecap="round"/>
<path d="M17.2344 30.2557L17.2344 24.8633" stroke="#5F5E5E" stroke-linecap="round"/>
<path d="M9.14648 7.78287H14.9566" stroke="#5F5E5E" stroke-linecap="round"/>
<path d="M9.14648 5.08667H14.9566" stroke="#5F5E5E" stroke-linecap="round"/>
</svg>
