<svg width="53" height="32" viewBox="0 0 53 32" fill="none" xmlns="http://www.w3.org/2000/svg">
<path d="M13.0832 7.22047V17.6525M45.8907 8.52447C45.8907 8.17863 45.7221 7.84695 45.422 7.6024C45.1218 7.35786 44.7148 7.22047 44.2903 7.22047H42.69V3.30847C42.69 2.61679 42.3528 1.95343 41.7525 1.46434C41.1523 0.975241 40.3381 0.70047 39.4892 0.70047H7.48198C6.63309 0.70047 5.81897 0.975241 5.21872 1.46434C4.61847 1.95343 4.28125 2.61679 4.28125 3.30847V21.5645C4.28125 22.2562 4.61847 22.9195 5.21872 23.4086C5.81897 23.8977 6.63309 24.1725 7.48198 24.1725H39.4892C40.3381 24.1725 41.1523 23.8977 41.7525 23.4086C42.3528 22.9195 42.69 22.2562 42.69 21.5645V17.6525H44.2903C44.7148 17.6525 45.1218 17.5151 45.422 17.2705C45.7221 17.026 45.8907 16.6943 45.8907 16.3485V8.52447Z" stroke="#5F5E5E" stroke-linecap="round" stroke-linejoin="round"/>
<path d="M0.976562 9.99299C0.976562 9.99299 1.67744 6.22791 5.28174 6.22791C8.88603 6.22791 9.34138 9.99299 9.34138 9.99299V29.4H0.976562V9.99299Z" fill="white"/>
<path d="M4.28091 11.6616C3.40454 11.6616 2.56407 12.0097 1.94438 12.6294C1.3247 13.2491 0.976562 14.0895 0.976562 14.9659V29.7253C0.976563 29.8121 0.993657 29.898 1.02687 29.9782C1.06008 30.0584 1.10876 30.1312 1.17013 30.1926C1.23149 30.254 1.30435 30.3027 1.38453 30.3359C1.46471 30.3691 1.55065 30.3862 1.63743 30.3862H6.92438C7.01117 30.3862 7.09711 30.3691 7.17729 30.3359C7.25747 30.3027 7.33032 30.254 7.39169 30.1926C7.45306 30.1312 7.50174 30.0584 7.53495 29.9782C7.56816 29.898 7.58525 29.8121 7.58525 29.7253V14.9659C7.58525 14.0895 7.23712 13.2491 6.61743 12.6294C5.99775 12.0097 5.15728 11.6616 4.28091 11.6616ZM4.28091 11.6616V8.35721M0.976562 18.2702H7.58525M4.28091 8.35721H3.17946M4.28091 8.35721H5.38236" stroke="#5F5E5E" stroke-linecap="round"/>
<circle cx="34.883" cy="17.4906" r="1.37711" stroke="#5F5E5E"/>
<circle cx="34.883" cy="6.22791" r="1.37711" stroke="#5F5E5E"/>
<circle cx="26.7482" cy="17.4906" r="1.37711" stroke="#5F5E5E"/>
<circle cx="26.7482" cy="6.22791" r="1.37711" stroke="#5F5E5E"/>
<circle cx="19.2404" cy="17.4906" r="1.37711" stroke="#5F5E5E"/>
<circle cx="38.6369" cy="11.8593" r="1.37711" stroke="#5F5E5E"/>
<circle cx="31.1291" cy="11.8593" r="1.37711" stroke="#5F5E5E"/>
<circle cx="22.9943" cy="11.8593" r="1.37711" stroke="#5F5E5E"/>
<circle cx="19.2404" cy="6.22791" r="1.37711" stroke="#5F5E5E"/>
<rect x="29.252" y="12.887" width="20.8308" height="15.1679" rx="1" fill="#F9F9F9"/>
<mask id="path-14-inside-1_4232_56478" fill="white">
<path d="M31.9791 28.763C31.4467 28.763 31.0024 28.5846 30.6464 28.2278C30.2904 27.871 30.112 27.4268 30.1112 26.8951V15.6031C30.1112 15.0714 30.2896 14.6271 30.6464 14.2704C31.0032 13.9136 31.447 13.7356 31.978 13.7363H49.0506C49.5823 13.7363 50.0262 13.9143 50.3822 14.2704C50.7382 14.6264 50.9166 15.0706 50.9174 15.6031V26.8962C50.9174 27.4279 50.739 27.8718 50.3822 28.2278C50.0254 28.5838 49.5811 28.7622 49.0494 28.763H31.9791ZM31.9791 27.6071H49.0506C49.2278 27.6071 49.3908 27.5327 49.5395 27.384C49.6882 27.2353 49.7622 27.0723 49.7615 26.8951V15.6031C49.7615 15.4259 49.6875 15.2629 49.5395 15.1142C49.3908 14.9654 49.2274 14.8911 49.0494 14.8911H31.9791C31.8011 14.8911 31.6378 14.9654 31.489 15.1142C31.3411 15.2621 31.2671 15.4251 31.2671 15.6031V26.8962C31.2671 27.0735 31.3411 27.236 31.489 27.384C31.637 27.532 31.8 27.6063 31.978 27.6071M28.6895 31.0748V29.9189H52.3391V31.0748H28.6895Z"/>
</mask>
<path d="M31.9791 28.763C31.4467 28.763 31.0024 28.5846 30.6464 28.2278C30.2904 27.871 30.112 27.4268 30.1112 26.8951V15.6031C30.1112 15.0714 30.2896 14.6271 30.6464 14.2704C31.0032 13.9136 31.447 13.7356 31.978 13.7363H49.0506C49.5823 13.7363 50.0262 13.9143 50.3822 14.2704C50.7382 14.6264 50.9166 15.0706 50.9174 15.6031V26.8962C50.9174 27.4279 50.739 27.8718 50.3822 28.2278C50.0254 28.5838 49.5811 28.7622 49.0494 28.763H31.9791ZM31.9791 27.6071H49.0506C49.2278 27.6071 49.3908 27.5327 49.5395 27.384C49.6882 27.2353 49.7622 27.0723 49.7615 26.8951V15.6031C49.7615 15.4259 49.6875 15.2629 49.5395 15.1142C49.3908 14.9654 49.2274 14.8911 49.0494 14.8911H31.9791C31.8011 14.8911 31.6378 14.9654 31.489 15.1142C31.3411 15.2621 31.2671 15.4251 31.2671 15.6031V26.8962C31.2671 27.0735 31.3411 27.236 31.489 27.384C31.637 27.532 31.8 27.6063 31.978 27.6071M28.6895 31.0748V29.9189H52.3391V31.0748H28.6895Z" fill="#5F5E5E"/>
<path d="M30.1112 26.8951H30.0112L30.0112 26.8952L30.1112 26.8951ZM31.978 13.7363L31.9778 13.8363H31.978V13.7363ZM50.9174 15.6031H51.0174V15.603L50.9174 15.6031ZM49.0494 28.763V28.863L49.0496 28.863L49.0494 28.763ZM49.7615 26.8951H49.6615L49.6615 26.8955L49.7615 26.8951ZM49.5395 15.1142L49.6104 15.0436L49.6102 15.0434L49.5395 15.1142ZM28.6895 31.0748H28.5895V31.1748H28.6895V31.0748ZM28.6895 29.9189V29.8189H28.5895V29.9189H28.6895ZM52.3391 29.9189H52.4391V29.8189H52.3391V29.9189ZM52.3391 31.0748V31.1748H52.4391V31.0748H52.3391ZM31.9791 28.663C31.4715 28.663 31.0533 28.494 30.7172 28.1572L30.5756 28.2984C30.9515 28.6752 31.4218 28.863 31.9791 28.863V28.663ZM30.7172 28.1572C30.3809 27.8202 30.2119 27.4018 30.2112 26.8949L30.0112 26.8952C30.012 27.4517 30.1998 27.9218 30.5756 28.2984L30.7172 28.1572ZM30.2112 26.8951V15.6031H30.0112V26.8951H30.2112ZM30.2112 15.6031C30.2112 15.0963 30.3802 14.678 30.7171 14.3411L30.5757 14.1996C30.199 14.5763 30.0112 15.0465 30.0112 15.6031H30.2112ZM30.7171 14.3411C31.054 14.0041 31.4719 13.8356 31.9778 13.8363L31.9781 13.6363C31.4222 13.6355 30.9523 13.823 30.5757 14.1996L30.7171 14.3411ZM31.978 13.8363H49.0506V13.6363H31.978V13.8363ZM49.0506 13.8363C49.5574 13.8363 49.9753 14.0049 50.3115 14.3411L50.4529 14.1996C50.077 13.8237 49.6072 13.6363 49.0506 13.6363V13.8363ZM50.3115 14.3411C50.6476 14.6772 50.8166 15.0955 50.8174 15.6032L51.0174 15.603C51.0165 15.0457 50.8288 14.5755 50.4529 14.1996L50.3115 14.3411ZM50.8174 15.6031V26.8962H51.0174V15.6031H50.8174ZM50.8174 26.8962C50.8174 27.403 50.6484 27.8209 50.3115 28.157L50.4528 28.2986C50.8295 27.9227 51.0174 27.4529 51.0174 26.8962H50.8174ZM50.3115 28.157C49.9746 28.4933 49.5562 28.6623 49.0493 28.663L49.0496 28.863C49.6061 28.8622 50.0762 28.6744 50.4528 28.2986L50.3115 28.157ZM49.0494 28.663H31.9791V28.863H49.0494V28.663ZM31.9791 27.7071H49.0506V27.5071H31.9791V27.7071ZM49.0506 27.7071C49.2592 27.7071 49.4465 27.6184 49.6102 27.4547L49.4688 27.3133C49.3351 27.447 49.1964 27.5071 49.0506 27.5071V27.7071ZM49.6102 27.4547C49.774 27.2909 49.8624 27.1035 49.8615 26.8946L49.6615 26.8955C49.6621 27.0411 49.6025 27.1796 49.4688 27.3133L49.6102 27.4547ZM49.8615 26.8951V15.6031H49.6615V26.8951H49.8615ZM49.8615 15.6031C49.8615 15.3946 49.7733 15.2074 49.6104 15.0436L49.4686 15.1847C49.6016 15.3184 49.6615 15.4571 49.6615 15.6031H49.8615ZM49.6102 15.0434C49.4464 14.8796 49.2587 14.7911 49.0494 14.7911V14.9911C49.1961 14.9911 49.3352 15.0512 49.4688 15.1849L49.6102 15.0434ZM49.0494 14.7911H31.9791V14.9911H49.0494V14.7911ZM31.9791 14.7911C31.7698 14.7911 31.5821 14.8796 31.4183 15.0434L31.5597 15.1849C31.6934 15.0512 31.8324 14.9911 31.9791 14.9911V14.7911ZM31.4183 15.0434C31.2552 15.2066 31.1671 15.394 31.1671 15.6031H31.3671C31.3671 15.4562 31.427 15.3176 31.5597 15.1849L31.4183 15.0434ZM31.1671 15.6031V26.8962H31.3671V15.6031H31.1671ZM31.1671 26.8962C31.1671 27.1047 31.2553 27.2916 31.4183 27.4547L31.5597 27.3133C31.4269 27.1804 31.3671 27.0422 31.3671 26.8962H31.1671ZM31.4183 27.4547C31.5814 27.6178 31.7686 27.7062 31.9775 27.7071L31.9784 27.5071C31.8314 27.5065 31.6926 27.4461 31.5597 27.3133L31.4183 27.4547ZM28.7895 31.0748V29.9189H28.5895V31.0748H28.7895ZM28.6895 30.0189H52.3391V29.8189H28.6895V30.0189ZM52.2391 29.9189V31.0748H52.4391V29.9189H52.2391ZM52.3391 30.9748H28.6895V31.1748H52.3391V30.9748Z" fill="white" mask="url(#path-14-inside-1_4232_56478)"/>
<path d="M30.9414 24.9811H35.3013C35.5127 23.3811 36.0006 20.1983 36.2614 20.2664C36.5223 20.3346 37.0344 23.4379 37.2578 24.9811H37.9099C38.073 22.7184 38.4788 18.1874 38.7976 18.1647C39.1164 18.1419 39.6792 22.6995 39.9207 24.9811H42.4791" stroke="#5F5E5E" stroke-width="0.6" stroke-linecap="round"/>
<path d="M41.416 24.9811H43.3411C43.4899 23.3811 43.8336 20.1983 44.0173 20.2664C44.2011 20.3346 44.5617 23.4379 44.7191 24.9811H45.1784C45.2933 22.7184 45.5791 18.1874 45.8036 18.1647C46.0282 18.1419 46.4246 22.6995 46.5947 24.9811H50.188" stroke="#5F5E5E" stroke-width="0.6" stroke-linecap="round"/>
</svg>
