<svg width="42" height="33" viewBox="0 0 42 33" fill="none" xmlns="http://www.w3.org/2000/svg">
<rect x="1.64258" y="30.7072" width="38.4386" height="2" rx="1" fill="#5F5E5E"/>
<circle cx="7.10394" cy="22.6622" r="0.855897" fill="#5F5E5E"/>
<circle cx="10.2524" cy="24.4349" r="0.855897" fill="#5F5E5E"/>
<circle cx="6.79926" cy="26.4028" r="0.855897" fill="#5F5E5E"/>
<circle cx="16.6801" cy="24.3741" r="0.855897" fill="#5F5E5E"/>
<circle cx="26.1801" cy="22.3708" r="0.855897" fill="#5F5E5E"/>
<circle cx="32.3657" cy="26.4031" r="0.855897" fill="#5F5E5E"/>
<circle cx="13.3848" cy="26.4884" r="0.427775" fill="#5F5E5E"/>
<circle cx="19.8379" cy="22.3707" r="0.427775" fill="#5F5E5E"/>
<circle cx="26.1797" cy="26.403" r="0.427775" fill="#5F5E5E"/>
<circle cx="29.4121" cy="24.4349" r="0.427775" fill="#5F5E5E"/>
<circle cx="32.6114" cy="22.6276" r="0.427775" fill="#5F5E5E"/>
<path d="M1.01758 20.2817L4.26592 17.6832L7.21876 20.2817L13.597 14.9665L20.2116 20.2817L22.1605 18.0375L23.8732 20.2817L26.8851 14.435C27.1411 14.8877 27.8301 15.7106 28.5388 15.3799C29.2475 15.0492 29.9365 15.6752 30.1924 16.0295L32.2004 20.2817C32.7122 19.5337 33.9721 18.0375 34.9171 18.0375C35.862 18.0375 39.1693 21.4629 40.7048 23.1756" stroke="#5F5E5E" stroke-linecap="round"/>
<path d="M8.62305 3.93585L13.2761 9.6712" stroke="#5F5E5E" stroke-linecap="round" stroke-dasharray="2 2"/>
<path d="M23.8935 0.830395C23.9115 0.554843 23.7028 0.316827 23.4272 0.298769L18.9369 0.00450721C18.6613 -0.0135502 18.4233 0.19519 18.4052 0.470741C18.3872 0.746293 18.5959 0.98431 18.8715 1.00237L22.8629 1.26393L22.6013 5.25537C22.5833 5.53092 22.792 5.76894 23.0676 5.787C23.3431 5.80505 23.5811 5.59631 23.5992 5.32076L23.8935 0.830395ZM12.9467 9.29538C12.7391 9.47745 12.7184 9.79336 12.9005 10.001C13.0825 10.2086 13.3984 10.2293 13.6061 10.0472L12.9467 9.29538ZM23.0649 0.421783L12.9467 9.29538L13.6061 10.0472L23.7242 1.17362L23.0649 0.421783Z" fill="#5F5E5E"/>
<path d="M32.1695 3.27264C32.1964 2.99781 31.9954 2.75322 31.7205 2.72634L27.2419 2.28831C26.9671 2.26143 26.7225 2.46243 26.6956 2.73726C26.6687 3.01209 26.8697 3.25668 27.1446 3.28356L31.1256 3.67292L30.7362 7.65393C30.7093 7.92876 30.9103 8.17334 31.1852 8.20022C31.46 8.2271 31.7046 8.0261 31.7315 7.75127L32.1695 3.27264ZM23.509 9.28517C23.2957 9.4605 23.2648 9.77558 23.4402 9.98892C23.6155 10.2023 23.9306 10.2331 24.1439 10.0577L23.509 9.28517ZM31.3544 2.83768L23.509 9.28517L24.1439 10.0577L31.9893 3.61026L31.3544 2.83768Z" fill="#5F5E5E"/>
<path d="M19.7637 4.74103L23.8271 9.67156" stroke="#5F5E5E" stroke-linecap="round" stroke-dasharray="2 2"/>
</svg>
