<svg width="34" height="36" viewBox="0 0 34 36" fill="none" xmlns="http://www.w3.org/2000/svg">
<mask id="path-1-inside-1_4232_56442" fill="white">
<path d="M17.194 1.2696C15.951 1.2696 14.7901 1.80373 13.8006 2.67839C12.8113 3.55325 11.9642 4.77163 11.2582 6.24745C11.1102 6.55662 10.9689 6.87794 10.8338 7.20938C10.4694 7.15482 10.1035 7.10998 9.73652 7.0749C9.30961 7.03476 8.89306 7.00983 8.48834 7.00089C7.27346 6.97366 6.16312 7.08991 5.18995 7.36829C3.89249 7.73953 2.82188 8.42141 2.20038 9.4371C1.57888 10.453 1.48861 11.6689 1.79663 12.9149C2.10479 14.1609 2.79932 15.4623 3.80075 16.7773C4.01087 17.0531 4.23535 17.3297 4.47226 17.6063C4.24049 17.8763 4.01686 18.1524 3.80163 18.4344C2.80013 19.7493 2.1056 21.0507 1.79752 22.2967C1.48943 23.5428 1.57977 24.7586 2.20127 25.7743C2.82277 26.7902 3.89338 27.472 5.19084 27.8431C6.48837 28.2145 8.02998 28.2975 9.73741 28.1365C10.0954 28.1027 10.461 28.0576 10.833 28.0023C10.9651 28.3273 11.1068 28.6486 11.2582 28.966C11.9642 30.442 12.8112 31.6602 13.8006 32.535C14.7901 33.4098 15.9511 33.944 17.194 33.944C18.4369 33.944 19.5979 33.4097 20.5873 32.535C21.5767 31.6601 22.4237 30.442 23.1298 28.966C23.2811 28.6487 23.4229 28.3274 23.5549 28.0025C23.9265 28.0576 24.2919 28.1028 24.6495 28.1365C26.357 28.2974 27.8987 28.2144 29.1961 27.8431C30.4937 27.472 31.5643 26.7901 32.1858 25.7743C32.8073 24.7584 32.8976 23.5427 32.5896 22.2967C32.2814 21.0508 31.5868 19.7494 30.5854 18.4344C30.3701 18.1525 30.1465 17.8763 29.9147 17.6063C30.1468 17.336 30.3708 17.0596 30.5863 16.7774C31.5877 15.4623 32.2822 14.1609 32.5903 12.915C32.8984 11.6689 32.808 10.4531 32.1865 9.43717C31.565 8.42148 30.4944 7.7396 29.197 7.36836C28.2239 7.08998 27.1135 6.97373 25.8987 7.00089C25.4937 7.00983 25.0771 7.03476 24.6502 7.0749C24.2921 7.1087 23.9261 7.15401 23.554 7.20931C23.4221 6.88499 23.2805 6.56425 23.1295 6.24745C22.4234 4.77143 21.5765 3.55304 20.587 2.67832C19.5976 1.8036 18.4366 1.26953 17.1937 1.26953L17.194 1.2696ZM17.194 2.57435C18.0231 2.57435 18.836 2.91808 19.642 3.63075C20.4479 4.34328 21.2177 5.42188 21.8696 6.78438C21.9756 7.00668 22.0764 7.23116 22.1719 7.45766C20.5873 7.79015 18.909 8.30027 17.1936 8.98187C15.4785 8.30041 13.8005 7.79043 12.2162 7.45794C12.314 7.22684 12.4145 7.00159 12.5185 6.78431C13.1703 5.42174 13.9401 4.34314 14.7461 3.63047C15.5521 2.91795 16.365 2.57421 17.1942 2.57421L17.194 2.57435ZM8.04981 8.30369C8.18329 8.30243 8.31888 8.30327 8.4566 8.3062C8.82358 8.31389 9.20514 8.33623 9.5992 8.37344C9.8512 8.39718 10.1088 8.42755 10.3705 8.46337C9.88317 9.92453 9.51219 11.551 9.27972 13.2936C7.7964 14.3549 6.48903 15.4716 5.39164 16.6006C5.23104 16.4089 5.07496 16.2138 4.92352 16.0156C3.99903 14.8017 3.39418 13.6333 3.14314 12.6182C2.8921 11.6032 2.98332 10.7671 3.39781 10.0895C3.81229 9.41197 4.53426 8.91952 5.59111 8.61712C6.28475 8.41862 7.11527 8.31165 8.04974 8.30362L8.04981 8.30369ZM26.3373 8.30369C27.2718 8.31172 28.1023 8.41869 28.796 8.61719C29.853 8.91952 30.5746 9.41197 30.9892 10.0895C31.4037 10.7671 31.4949 11.6032 31.2439 12.6182C30.9931 13.6332 30.3879 14.8017 29.4636 16.0156C29.3121 16.2139 29.1561 16.4089 28.9956 16.6007C27.8983 15.4719 26.5913 14.3555 25.1085 13.2943C24.8761 11.5514 24.5047 9.92474 24.0174 8.46337C24.2788 8.42755 24.5361 8.39704 24.7879 8.37344C25.1677 8.3371 25.5489 8.31465 25.9305 8.30613C26.0661 8.30323 26.2017 8.30237 26.3373 8.30355V8.30369ZM22.6438 8.69748C23.0116 9.77539 23.316 10.9647 23.5432 12.2374C22.8092 11.7695 22.0578 11.3262 21.2906 10.9084C20.524 10.4904 19.7419 10.0982 18.9459 9.73238C20.2274 9.28168 21.4709 8.93592 22.6438 8.69762V8.69748ZM11.7441 8.69769C12.9168 8.93606 14.1602 9.28182 15.4413 9.73245C14.6453 10.0983 13.8633 10.4905 13.0966 10.9084C12.3297 11.326 11.5787 11.7691 10.8449 12.2367C11.072 10.9643 11.3764 9.77532 11.7441 8.69769ZM17.1936 10.4055C18.3187 10.8739 19.4608 11.4182 20.5992 12.0385C21.7381 12.6591 22.8093 13.3204 23.8018 14.0061C23.9347 15.16 24.0062 16.3659 24.0062 17.6068C24.0062 18.8469 23.9349 20.0523 23.8021 21.2058C22.8096 21.8913 21.7386 22.5525 20.6001 23.1729C19.4614 23.7933 18.319 24.3378 17.1936 24.8062C16.0681 24.3378 14.9258 23.7933 13.7871 23.1729C12.6488 22.5527 11.5782 21.8917 10.5861 21.2065C10.4532 20.0528 10.3818 18.8472 10.3818 17.6067C10.3818 16.3656 10.4532 15.1596 10.5862 14.0055C11.5786 13.3201 12.6494 12.6588 13.7879 12.0385C14.9264 11.4183 16.0685 10.8739 17.1936 10.4057V10.4055ZM9.09216 15.101C9.02994 15.9349 8.99892 16.7706 8.99916 17.6066C8.99916 18.4582 9.03097 19.2943 9.09223 20.1106C8.0379 19.2888 7.09877 18.4454 6.29348 17.6059C7.09877 16.7665 8.03783 15.923 9.09216 15.101ZM25.2959 15.1017C26.3498 15.9235 27.2887 16.7667 28.0937 17.606C27.2887 18.4453 26.3498 19.2885 25.2959 20.1101C25.3581 19.2769 25.3891 18.4419 25.3889 17.6066C25.3889 16.7545 25.3571 15.9183 25.2959 15.1017H25.2959ZM5.39149 18.6115C6.48903 19.7405 7.79626 20.857 9.27942 21.9182C9.51175 23.6606 9.88287 25.287 10.37 26.7481C10.1088 26.7837 9.85165 26.8143 9.60009 26.838C8.02384 26.9865 6.64892 26.8966 5.592 26.5943C4.535 26.292 3.81332 25.7993 3.39877 25.1218C2.98429 24.4442 2.89306 23.6081 3.14403 22.5931C3.39499 21.5781 3.99992 20.4096 4.9244 19.1957C5.07552 18.9977 5.23121 18.8029 5.39149 18.6115ZM28.9955 18.6117C29.1588 18.8072 29.3151 19.002 29.4626 19.1957C30.387 20.4095 30.9919 21.578 31.2429 22.593C31.4939 23.608 31.4029 24.4441 30.9884 25.1217C30.5737 25.7993 29.8519 26.2919 28.7949 26.5942C27.7381 26.8966 26.3634 26.9864 24.7871 26.8379C24.5301 26.8133 24.2737 26.7834 24.018 26.7482C24.5052 25.2867 24.8763 23.66 25.1086 21.9173C26.5913 20.8563 27.8984 19.7401 28.9956 18.6116L28.9955 18.6117ZM23.5435 22.9744C23.3164 24.2469 23.012 25.4363 22.6443 26.5141C21.4713 26.2758 20.2276 25.9298 18.9461 25.4792C19.7423 25.1132 20.5245 24.7208 21.2915 24.3028C22.0585 23.8851 22.8097 23.442 23.5437 22.9744H23.5435ZM10.8446 22.9751C11.5781 23.4425 12.3289 23.8854 13.0956 24.3028C13.8625 24.7208 14.6448 25.1132 15.441 25.4792C14.1598 25.9298 12.9165 26.2757 11.7436 26.514C11.3759 25.4363 11.0717 24.2473 10.8446 22.9751ZM17.1935 26.2299C18.9093 26.9114 20.5876 27.4214 22.1725 27.7538C22.0768 27.981 21.9758 28.2061 21.8696 28.429C21.2177 29.7914 20.4479 30.87 19.6419 31.5826C18.836 32.2952 18.0231 32.639 17.194 32.639C16.365 32.639 15.552 32.2952 14.746 31.5826C13.9401 30.87 13.1703 29.7914 12.5185 28.4289C12.4123 28.206 12.3112 27.9809 12.2155 27.7538C13.8 27.4213 15.4782 26.9113 17.1936 26.2299H17.1935Z"/>
</mask>
<path d="M17.194 1.2696C15.951 1.2696 14.7901 1.80373 13.8006 2.67839C12.8113 3.55325 11.9642 4.77163 11.2582 6.24745C11.1102 6.55662 10.9689 6.87794 10.8338 7.20938C10.4694 7.15482 10.1035 7.10998 9.73652 7.0749C9.30961 7.03476 8.89306 7.00983 8.48834 7.00089C7.27346 6.97366 6.16312 7.08991 5.18995 7.36829C3.89249 7.73953 2.82188 8.42141 2.20038 9.4371C1.57888 10.453 1.48861 11.6689 1.79663 12.9149C2.10479 14.1609 2.79932 15.4623 3.80075 16.7773C4.01087 17.0531 4.23535 17.3297 4.47226 17.6063C4.24049 17.8763 4.01686 18.1524 3.80163 18.4344C2.80013 19.7493 2.1056 21.0507 1.79752 22.2967C1.48943 23.5428 1.57977 24.7586 2.20127 25.7743C2.82277 26.7902 3.89338 27.472 5.19084 27.8431C6.48837 28.2145 8.02998 28.2975 9.73741 28.1365C10.0954 28.1027 10.461 28.0576 10.833 28.0023C10.9651 28.3273 11.1068 28.6486 11.2582 28.966C11.9642 30.442 12.8112 31.6602 13.8006 32.535C14.7901 33.4098 15.9511 33.944 17.194 33.944C18.4369 33.944 19.5979 33.4097 20.5873 32.535C21.5767 31.6601 22.4237 30.442 23.1298 28.966C23.2811 28.6487 23.4229 28.3274 23.5549 28.0025C23.9265 28.0576 24.2919 28.1028 24.6495 28.1365C26.357 28.2974 27.8987 28.2144 29.1961 27.8431C30.4937 27.472 31.5643 26.7901 32.1858 25.7743C32.8073 24.7584 32.8976 23.5427 32.5896 22.2967C32.2814 21.0508 31.5868 19.7494 30.5854 18.4344C30.3701 18.1525 30.1465 17.8763 29.9147 17.6063C30.1468 17.336 30.3708 17.0596 30.5863 16.7774C31.5877 15.4623 32.2822 14.1609 32.5903 12.915C32.8984 11.6689 32.808 10.4531 32.1865 9.43717C31.565 8.42148 30.4944 7.7396 29.197 7.36836C28.2239 7.08998 27.1135 6.97373 25.8987 7.00089C25.4937 7.00983 25.0771 7.03476 24.6502 7.0749C24.2921 7.1087 23.9261 7.15401 23.554 7.20931C23.4221 6.88499 23.2805 6.56425 23.1295 6.24745C22.4234 4.77143 21.5765 3.55304 20.587 2.67832C19.5976 1.8036 18.4366 1.26953 17.1937 1.26953L17.194 1.2696ZM17.194 2.57435C18.0231 2.57435 18.836 2.91808 19.642 3.63075C20.4479 4.34328 21.2177 5.42188 21.8696 6.78438C21.9756 7.00668 22.0764 7.23116 22.1719 7.45766C20.5873 7.79015 18.909 8.30027 17.1936 8.98187C15.4785 8.30041 13.8005 7.79043 12.2162 7.45794C12.314 7.22684 12.4145 7.00159 12.5185 6.78431C13.1703 5.42174 13.9401 4.34314 14.7461 3.63047C15.5521 2.91795 16.365 2.57421 17.1942 2.57421L17.194 2.57435ZM8.04981 8.30369C8.18329 8.30243 8.31888 8.30327 8.4566 8.3062C8.82358 8.31389 9.20514 8.33623 9.5992 8.37344C9.8512 8.39718 10.1088 8.42755 10.3705 8.46337C9.88317 9.92453 9.51219 11.551 9.27972 13.2936C7.7964 14.3549 6.48903 15.4716 5.39164 16.6006C5.23104 16.4089 5.07496 16.2138 4.92352 16.0156C3.99903 14.8017 3.39418 13.6333 3.14314 12.6182C2.8921 11.6032 2.98332 10.7671 3.39781 10.0895C3.81229 9.41197 4.53426 8.91952 5.59111 8.61712C6.28475 8.41862 7.11527 8.31165 8.04974 8.30362L8.04981 8.30369ZM26.3373 8.30369C27.2718 8.31172 28.1023 8.41869 28.796 8.61719C29.853 8.91952 30.5746 9.41197 30.9892 10.0895C31.4037 10.7671 31.4949 11.6032 31.2439 12.6182C30.9931 13.6332 30.3879 14.8017 29.4636 16.0156C29.3121 16.2139 29.1561 16.4089 28.9956 16.6007C27.8983 15.4719 26.5913 14.3555 25.1085 13.2943C24.8761 11.5514 24.5047 9.92474 24.0174 8.46337C24.2788 8.42755 24.5361 8.39704 24.7879 8.37344C25.1677 8.3371 25.5489 8.31465 25.9305 8.30613C26.0661 8.30323 26.2017 8.30237 26.3373 8.30355V8.30369ZM22.6438 8.69748C23.0116 9.77539 23.316 10.9647 23.5432 12.2374C22.8092 11.7695 22.0578 11.3262 21.2906 10.9084C20.524 10.4904 19.7419 10.0982 18.9459 9.73238C20.2274 9.28168 21.4709 8.93592 22.6438 8.69762V8.69748ZM11.7441 8.69769C12.9168 8.93606 14.1602 9.28182 15.4413 9.73245C14.6453 10.0983 13.8633 10.4905 13.0966 10.9084C12.3297 11.326 11.5787 11.7691 10.8449 12.2367C11.072 10.9643 11.3764 9.77532 11.7441 8.69769ZM17.1936 10.4055C18.3187 10.8739 19.4608 11.4182 20.5992 12.0385C21.7381 12.6591 22.8093 13.3204 23.8018 14.0061C23.9347 15.16 24.0062 16.3659 24.0062 17.6068C24.0062 18.8469 23.9349 20.0523 23.8021 21.2058C22.8096 21.8913 21.7386 22.5525 20.6001 23.1729C19.4614 23.7933 18.319 24.3378 17.1936 24.8062C16.0681 24.3378 14.9258 23.7933 13.7871 23.1729C12.6488 22.5527 11.5782 21.8917 10.5861 21.2065C10.4532 20.0528 10.3818 18.8472 10.3818 17.6067C10.3818 16.3656 10.4532 15.1596 10.5862 14.0055C11.5786 13.3201 12.6494 12.6588 13.7879 12.0385C14.9264 11.4183 16.0685 10.8739 17.1936 10.4057V10.4055ZM9.09216 15.101C9.02994 15.9349 8.99892 16.7706 8.99916 17.6066C8.99916 18.4582 9.03097 19.2943 9.09223 20.1106C8.0379 19.2888 7.09877 18.4454 6.29348 17.6059C7.09877 16.7665 8.03783 15.923 9.09216 15.101ZM25.2959 15.1017C26.3498 15.9235 27.2887 16.7667 28.0937 17.606C27.2887 18.4453 26.3498 19.2885 25.2959 20.1101C25.3581 19.2769 25.3891 18.4419 25.3889 17.6066C25.3889 16.7545 25.3571 15.9183 25.2959 15.1017H25.2959ZM5.39149 18.6115C6.48903 19.7405 7.79626 20.857 9.27942 21.9182C9.51175 23.6606 9.88287 25.287 10.37 26.7481C10.1088 26.7837 9.85165 26.8143 9.60009 26.838C8.02384 26.9865 6.64892 26.8966 5.592 26.5943C4.535 26.292 3.81332 25.7993 3.39877 25.1218C2.98429 24.4442 2.89306 23.6081 3.14403 22.5931C3.39499 21.5781 3.99992 20.4096 4.9244 19.1957C5.07552 18.9977 5.23121 18.8029 5.39149 18.6115ZM28.9955 18.6117C29.1588 18.8072 29.3151 19.002 29.4626 19.1957C30.387 20.4095 30.9919 21.578 31.2429 22.593C31.4939 23.608 31.4029 24.4441 30.9884 25.1217C30.5737 25.7993 29.8519 26.2919 28.7949 26.5942C27.7381 26.8966 26.3634 26.9864 24.7871 26.8379C24.5301 26.8133 24.2737 26.7834 24.018 26.7482C24.5052 25.2867 24.8763 23.66 25.1086 21.9173C26.5913 20.8563 27.8984 19.7401 28.9956 18.6116L28.9955 18.6117ZM23.5435 22.9744C23.3164 24.2469 23.012 25.4363 22.6443 26.5141C21.4713 26.2758 20.2276 25.9298 18.9461 25.4792C19.7423 25.1132 20.5245 24.7208 21.2915 24.3028C22.0585 23.8851 22.8097 23.442 23.5437 22.9744H23.5435ZM10.8446 22.9751C11.5781 23.4425 12.3289 23.8854 13.0956 24.3028C13.8625 24.7208 14.6448 25.1132 15.441 25.4792C14.1598 25.9298 12.9165 26.2757 11.7436 26.514C11.3759 25.4363 11.0717 24.2473 10.8446 22.9751ZM17.1935 26.2299C18.9093 26.9114 20.5876 27.4214 22.1725 27.7538C22.0768 27.981 21.9758 28.2061 21.8696 28.429C21.2177 29.7914 20.4479 30.87 19.6419 31.5826C18.836 32.2952 18.0231 32.639 17.194 32.639C16.365 32.639 15.552 32.2952 14.746 31.5826C13.9401 30.87 13.1703 29.7914 12.5185 28.4289C12.4123 28.206 12.3112 27.9809 12.2155 27.7538C13.8 27.4213 15.4782 26.9113 17.1936 26.2299H17.1935Z" fill="#5F5E5E" stroke="white" stroke-width="0.4" mask="url(#path-1-inside-1_4232_56442)"/>
<path d="M33.2728 13.7455C33.2728 14.5437 32.5783 15.2394 31.6598 15.2394C30.7413 15.2394 30.0469 14.5437 30.0469 13.7455C30.0469 12.9473 30.7413 12.2515 31.6598 12.2515C32.5783 12.2515 33.2728 12.9473 33.2728 13.7455Z" fill="white" stroke="#5F5E5E"/>
<path d="M16.6947 2.79163C16.6947 3.58981 16.0002 4.28559 15.0817 4.28559C14.1632 4.28559 13.4688 3.58981 13.4688 2.79163C13.4688 1.99345 14.1632 1.29767 15.0817 1.29767C16.0002 1.29767 16.6947 1.99345 16.6947 2.79163Z" fill="white" stroke="#5F5E5E"/>
<path d="M4.5931 20.7246C4.5931 21.5228 3.89865 22.2185 2.98014 22.2185C2.06163 22.2185 1.36719 21.5228 1.36719 20.7246C1.36719 19.9264 2.06163 19.2306 2.98014 19.2306C3.89865 19.2306 4.5931 19.9264 4.5931 20.7246Z" fill="white" stroke="#5F5E5E"/>
<path d="M20.612 17.7333C20.612 19.6327 18.9715 21.2212 16.8861 21.2212C14.8006 21.2212 13.1602 19.6327 13.1602 17.7333C13.1602 15.8339 14.8006 14.2454 16.8861 14.2454C18.9715 14.2454 20.612 15.8339 20.612 17.7333Z" fill="white" stroke="#5F5E5E"/>
<path d="M19.7357 33.6266C19.7357 34.4248 19.0412 35.1205 18.1227 35.1205C17.2042 35.1205 16.5098 34.4248 16.5098 33.6266C16.5098 32.8284 17.2042 32.1326 18.1227 32.1326C19.0412 32.1326 19.7357 32.8284 19.7357 33.6266Z" fill="white" stroke="#5F5E5E"/>
</svg>
