<svg width="58" height="54" viewBox="0 0 58 54" fill="none" xmlns="http://www.w3.org/2000/svg">
<circle cx="38.2754" cy="37.3389" r="2" fill="white" stroke="#222222"/>
<path d="M31.5879 48.4121H52.3862C53.4908 48.4121 54.3862 47.5167 54.3862 46.4121V20.4224C54.3862 20.0426 54.2817 19.6751 54.0598 19.3668C52.6949 17.4703 47.1125 10.5262 38.4871 10.4284" stroke="#222222" stroke-width="1.4" stroke-linecap="round"/>
<circle cx="14.3794" cy="41.7817" r="11.4017" stroke="#222222" stroke-width="1.6"/>
<path d="M1.15039 44.6055H5.15039M1.15039 38.6055H5.15039" stroke="white" stroke-width="2" stroke-linecap="round"/>
<line x1="22.2841" y1="28.3073" x2="13.9231" y2="30.3207" stroke="#222222" stroke-width="1.4" stroke-linecap="round"/>
<line x1="26.5891" y1="31.6592" x2="26.2182" y2="40.2512" stroke="#222222" stroke-width="1.4" stroke-linecap="round"/>
<circle cx="53.3809" cy="21.542" r="3.5" fill="white" stroke="#222222"/>
<circle cx="17.3809" cy="16.542" r="2.5" fill="white" stroke="#222222"/>
<line x1="26.1954" y1="26.0449" x2="29.0238" y2="28.8733" stroke="#222222" stroke-linecap="round"/>
<line x1="26.918" y1="52.6152" x2="55.6123" y2="52.6152" stroke="#222222" stroke-width="2" stroke-linecap="round"/>
<rect x="25.147" y="21.6791" width="26.9045" height="10.4801" transform="rotate(-49.7332 25.147 21.6791)" fill="white" stroke="#222222" stroke-width="1.6"/>
<path d="M14.5703 43.8323V40.0798L17.7891 38.2953L21.0078 40.0798V43.8323L17.7891 45.654L14.5703 43.8323Z" stroke="#222222"/>
<path d="M7.75195 43.8323V40.0798L10.9707 38.2953L14.1895 40.0798V43.8323L10.9707 45.654L7.75195 43.8323Z" stroke="#222222"/>
</svg>
