<svg width="37" height="37" viewBox="0 0 37 37" fill="none" xmlns="http://www.w3.org/2000/svg">
<path d="M8.44665 13.8298C3.96785 15.3637 0.748047 19.6105 0.748047 24.6092C0.748047 30.9005 5.8481 36.0005 12.1393 36.0005C18.4306 36.0005 23.5306 30.9005 23.5306 24.6092C23.5306 19.6105 20.3108 15.3637 15.832 13.8298" stroke="#5F5E5E"/>
<path d="M9.22293 16.1629C5.68671 17.374 3.14453 20.727 3.14453 24.6737C3.14453 29.6409 7.17126 33.6677 12.1385 33.6677C17.1057 33.6677 21.1324 29.6409 21.1324 24.6737C17.3022 24.6737 16.4517 24.6737 11.9469 24.6737" stroke="#5F5E5E" stroke-width="0.6"/>
<path d="M16.2358 14.1105V4.21547L8.47656 4.21539V14.1105" stroke="#5F5E5E"/>
<rect x="7.07031" y="1.20047" width="10.4558" height="2.8657" stroke="#5F5E5E"/>
<line x1="26.8711" y1="28.5928" x2="35.8385" y2="28.5928" stroke="#5F5E5E" stroke-linecap="round"/>
<line x1="26.8711" y1="25.745" x2="35.8385" y2="25.745" stroke="#5F5E5E" stroke-linecap="round"/>
<line x1="26.8711" y1="23.6091" x2="35.8385" y2="23.6091" stroke="#5F5E5E" stroke-linecap="round"/>
<path d="M23.7773 16.4322V12.0345L27.5491 9.94355L31.3208 12.0345V16.4322L27.5491 18.5669L23.7773 16.4322Z" stroke="#5F5E5E"/>
<path d="M27.7168 9.66443V5.26679L31.4885 3.17579L35.2603 5.26679V9.66443L31.4885 11.7991L27.7168 9.66443Z" stroke="#5F5E5E"/>
<path d="M19.8848 9.66443V5.26679L23.6565 3.17579L27.4282 5.26679V9.66443L23.6565 11.7991L19.8848 9.66443Z" stroke="#5F5E5E"/>
</svg>
