<svg width="52" height="52" viewBox="0 0 52 52" fill="none" xmlns="http://www.w3.org/2000/svg">
<path d="M12.0848 19.2012C5.79396 21.3557 1.27148 27.3206 1.27148 34.3418C1.27148 43.1783 8.43493 50.3418 17.2715 50.3418C26.108 50.3418 33.2715 43.1783 33.2715 34.3418C33.2715 27.3206 28.749 21.3557 22.4582 19.2012" stroke="#222222" stroke-width="1.6"/>
<path d="M13.1763 22.4775C8.20937 24.1786 4.63867 28.8882 4.63867 34.4317C4.63867 41.4086 10.2945 47.0645 17.2714 47.0645C24.2483 47.0645 29.9041 41.4086 29.9041 34.4317C24.5243 34.4317 23.3296 34.4317 17.0023 34.4317" stroke="#222222" stroke-width="0.6"/>
<path d="M23.0234 19.5957V5.69737L12.125 5.69727V19.5957" stroke="#222222" stroke-width="1.6"/>
<rect x="10.2492" y="1.55977" width="14.4906" height="3.82969" stroke="#222222" stroke-width="1.6"/>
<line x1="37.9617" y1="39.9387" x2="50.5617" y2="39.9387" stroke="#222222" stroke-width="1.4" stroke-linecap="round"/>
<line x1="37.9617" y1="35.9387" x2="50.5617" y2="35.9387" stroke="#222222" stroke-width="1.4" stroke-linecap="round"/>
<line x1="37.9617" y1="32.9387" x2="50.5617" y2="32.9387" stroke="#222222" stroke-width="1.4" stroke-linecap="round"/>
<path d="M33.616 22.8576V16.6781L38.916 13.7398L44.216 16.6781V22.8576L38.916 25.8572L33.616 22.8576Z" stroke="#222222" stroke-width="1.4"/>
<path d="M39.1492 13.3517V7.17221L44.4492 4.23397L49.7492 7.17221V13.3517L44.4492 16.3514L39.1492 13.3517Z" stroke="#222222" stroke-width="1.4"/>
<path d="M28.1492 13.3517V7.17221L33.4492 4.23397L38.7492 7.17221V13.3517L33.4492 16.3514L28.1492 13.3517Z" stroke="#222222" stroke-width="1.4"/>
</svg>
