<svg width="52" height="37" viewBox="0 0 52 37" fill="none" xmlns="http://www.w3.org/2000/svg">
<path d="M1.25 5.04789C2.95714 4.47866 6.56031 3.89982 9.18891 6.76749C12.4747 10.3521 11.2798 14.3847 14.715 16.0276C18.1501 17.6705 21.5853 13.1899 28.0075 16.0276C34.4297 18.8653 31.7414 24.0927 35.1765 25.885C38.6117 27.6772 40.2546 22.5992 44.1378 24.9888C47.2443 26.9006 47.5231 31.1622 47.2742 33.054" stroke="#A4A4A4" stroke-width="2" stroke-linecap="round"/>
<path d="M46.8777 36.4991L43.8426 31.7039L50.6003 32.2157L46.8777 36.4991Z" fill="#A4A4A4"/>
<path d="M20.5288 26.1834L28.6717 26.1834M21.5466 0.574786C21.2767 0.574786 21.0178 0.706397 20.8269 0.940667C20.636 1.17494 20.5288 1.49268 20.5288 1.82398L20.5288 3.07318L17.4752 3.07318C16.9353 3.07318 16.4175 3.33641 16.0357 3.80495C15.6539 4.27349 15.4395 4.90897 15.4395 5.57158L15.4395 30.5556C15.4395 31.2182 15.6539 31.8537 16.0357 32.3222C16.4175 32.7907 16.9353 33.054 17.4752 33.054L31.7253 33.054C32.2652 33.054 32.783 32.7907 33.1648 32.3222C33.5466 31.8537 33.761 31.2182 33.761 30.5556L33.761 5.57158C33.761 4.90896 33.5466 4.27349 33.1648 3.80495C32.783 3.33641 32.2652 3.07318 31.7253 3.07318L28.6717 3.07318L28.6717 1.82398C28.6717 1.49268 28.5645 1.17494 28.3736 0.940667C28.1827 0.706397 27.9238 0.574786 27.6538 0.574786L21.5466 0.574786Z" stroke="#5E5E5E" stroke-linecap="round" stroke-linejoin="round"/>
<path d="M20.1957 11.2979L18.5421 7.99064H29.0035L30.6571 11.2979H20.1957Z" fill="#D9D9D9" stroke="#5E5E5E" stroke-width="0.6"/>
<path d="M20.1957 19.4868L18.5421 16.1796H29.0035L30.6571 19.4868H20.1957Z" fill="#D9D9D9" stroke="#5E5E5E" stroke-width="0.6"/>
<path d="M20.1957 27.6757L18.5421 24.3685H29.0035L30.6571 27.6757H20.1957Z" fill="#D9D9D9" stroke="#5E5E5E" stroke-width="0.6"/>
<circle cx="20.5172" cy="13.7385" r="1.26522" transform="rotate(90 20.5172 13.7385)" stroke="#5E5E5E" stroke-width="0.4"/>
<circle cx="25.1754" cy="13.7385" r="1.26522" transform="rotate(90 25.1754 13.7385)" stroke="#5E5E5E" stroke-width="0.4"/>
<circle cx="29.8317" cy="13.7385" r="1.26522" transform="rotate(90 29.8317 13.7385)" stroke="#5E5E5E" stroke-width="0.4"/>
<circle cx="20.5172" cy="21.9281" r="1.26522" transform="rotate(90 20.5172 21.9281)" stroke="#5E5E5E" stroke-width="0.4"/>
<circle cx="25.1754" cy="21.9281" r="1.26522" transform="rotate(90 25.1754 21.9281)" stroke="#5E5E5E" stroke-width="0.4"/>
<circle cx="29.8317" cy="21.9281" r="1.26522" transform="rotate(90 29.8317 21.9281)" stroke="#5E5E5E" stroke-width="0.4"/>
</svg>
