<svg width="81" height="58" viewBox="0 0 81 58" fill="none" xmlns="http://www.w3.org/2000/svg">
<path d="M2.66406 7.91334C5.30832 7.03163 10.8894 6.13505 14.961 10.5769C20.0504 16.1292 18.1997 22.3755 23.5205 24.9203C28.8414 27.465 34.1622 20.5248 44.1099 24.9203C54.0576 29.3158 49.8935 37.4127 55.2143 40.1888C60.5352 42.9649 63.0799 35.0993 69.0948 38.8008C73.9067 41.7619 74.3385 48.3629 73.953 51.2932" stroke="#A4A4A4" stroke-width="4" stroke-linecap="round"/>
<path d="M73.3395 56.6293L68.6383 49.2018L79.1056 49.9945L73.3395 56.6293Z" fill="#A4A4A4"/>
<path d="M32.5257 40.6518L45.1386 40.6518M34.1023 0.985549C33.6841 0.985549 33.2831 1.18941 32.9874 1.55228C32.6918 1.91515 32.5257 2.40731 32.5257 2.92049L32.5257 4.85543L27.7958 4.85543C26.9595 4.85543 26.1575 5.26314 25.5661 5.98889C24.9748 6.71463 24.6426 7.69895 24.6426 8.7253L24.6426 47.4241C24.6426 48.4504 24.9748 49.4347 25.5661 50.1605C26.1575 50.8862 26.9595 51.2939 27.7958 51.2939L49.8684 51.2939C50.7047 51.2939 51.5068 50.8862 52.0981 50.1605C52.6895 49.4347 53.0217 48.4504 53.0217 47.4241L53.0217 8.7253C53.0217 7.69895 52.6895 6.71463 52.0981 5.98889C51.5068 5.26314 50.7047 4.85542 49.8684 4.85542L45.1386 4.85542L45.1386 2.92049C45.1386 2.40731 44.9725 1.91515 44.6768 1.55228C44.3811 1.18941 43.9801 0.985548 43.562 0.985548L34.1023 0.985549Z" stroke="black" stroke-width="1.6" stroke-linecap="round" stroke-linejoin="round"/>
<path d="M32.0323 17.559L29.5063 12.5068H45.6315L48.1575 17.559H32.0323Z" fill="#D9D9D9" stroke="black"/>
<path d="M32.0323 30.2435L29.5063 25.1914H45.6315L48.1575 30.2435H32.0323Z" fill="#D9D9D9" stroke="black"/>
<path d="M32.0323 42.9281L29.5063 37.876H45.6315L48.1575 42.9281H32.0323Z" fill="#D9D9D9" stroke="black"/>
<circle cx="32.5098" cy="21.375" r="1.56954" transform="rotate(90 32.5098 21.375)" stroke="#222222" stroke-width="1.4"/>
<circle cx="39.7226" cy="21.375" r="1.56954" transform="rotate(90 39.7226 21.375)" stroke="#222222" stroke-width="1.4"/>
<circle cx="46.9375" cy="21.375" r="1.56954" transform="rotate(90 46.9375 21.375)" stroke="#222222" stroke-width="1.4"/>
<circle cx="32.5098" cy="34.0606" r="1.56954" transform="rotate(90 32.5098 34.0606)" stroke="#222222" stroke-width="1.4"/>
<circle cx="39.7226" cy="34.0606" r="1.56954" transform="rotate(90 39.7226 34.0606)" stroke="#222222" stroke-width="1.4"/>
<circle cx="46.9375" cy="34.0606" r="1.56954" transform="rotate(90 46.9375 34.0606)" stroke="#222222" stroke-width="1.4"/>
</svg>
