<svg width="33" height="35" viewBox="0 0 33 35" fill="none" xmlns="http://www.w3.org/2000/svg">
<rect x="20.0723" y="33.3685" width="12.5869" height="1.57337" rx="0.786684" fill="#5F5E5E"/>
<path d="M28.5868 23.662V32.8684H24.1465V23.662C24.1465 22.4358 25.1405 21.4418 26.3667 21.4418C27.5928 21.4418 28.5868 22.4358 28.5868 23.662Z" fill="white" stroke="#5F5E5E"/>
<path d="M27.7711 21.2391V21.6255H24.9629V21.2391C24.9629 20.4636 25.5915 19.8349 26.367 19.8349C27.1425 19.8349 27.7711 20.4636 27.7711 21.2391Z" fill="white" stroke="#5F5E5E"/>
<rect x="0.857422" y="33.3685" width="12.5869" height="1.57337" rx="0.786684" fill="#5F5E5E"/>
<path d="M9.37005 23.662V32.8684H4.92969V23.662C4.92969 22.4358 5.9237 21.4418 7.14987 21.4418C8.37604 21.4418 9.37005 22.4358 9.37005 23.662Z" fill="white" stroke="#5F5E5E"/>
<path d="M8.55435 21.2391V21.6255H5.74609V21.2391C5.74609 20.4636 6.37474 19.8349 7.15022 19.8349C7.9257 19.8349 8.55435 20.4636 8.55435 21.2391Z" fill="white" stroke="#5F5E5E"/>
<path d="M24.1943 4.59875V13.8051H19.7539V4.59875C19.7539 3.37258 20.7479 2.37857 21.9741 2.37857C23.2003 2.37857 24.1943 3.37258 24.1943 4.59875Z" fill="white" stroke="#5F5E5E"/>
<path d="M23.3786 2.1758V2.56228H20.5703V2.1758C20.5703 1.40032 21.199 0.771667 21.9744 0.771667C22.7499 0.771667 23.3786 1.40032 23.3786 2.1758Z" fill="white" stroke="#5F5E5E"/>
<path d="M13.6064 4.59875V13.8051H9.16602V4.59875C9.16602 3.37258 10.16 2.37857 11.3862 2.37857C12.6124 2.37857 13.6064 3.37258 13.6064 4.59875Z" fill="white" stroke="#5F5E5E"/>
<path d="M12.7907 2.1758V2.56228H9.98242V2.1758C9.98242 1.40032 10.6111 0.771667 11.3865 0.771667C12.162 0.771667 12.7907 1.40032 12.7907 2.1758Z" fill="white" stroke="#5F5E5E"/>
<path d="M7.30859 5.16571H26.0559C27.9888 5.16571 29.5559 6.73271 29.5559 8.66571V29.3396H3.80859V8.66571C3.80859 6.73271 5.3756 5.16571 7.30859 5.16571Z" fill="white" stroke="#5F5E5E"/>
<path d="M13.2115 22.0855C13.0698 22.3225 13.147 22.6295 13.384 22.7712C13.621 22.913 13.928 22.8357 14.0697 22.5987L13.2115 22.0855ZM22.2631 8.61379C22.1957 8.34599 21.924 8.18349 21.6562 8.25085L17.2921 9.34846C17.0243 9.41582 16.8618 9.68751 16.9292 9.95532C16.9965 10.2231 17.2682 10.3856 17.536 10.3183L21.4152 9.3426L22.3909 13.2218C22.4582 13.4896 22.7299 13.6521 22.9977 13.5847C23.2655 13.5174 23.428 13.2457 23.3607 12.9779L22.2631 8.61379ZM14.0697 22.5987L22.2073 8.99239L21.3491 8.47911L13.2115 22.0855L14.0697 22.5987Z" fill="#5F5E5E"/>
<circle cx="17.7092" cy="15.5389" r="3.76384" fill="white" stroke="#5F5E5E"/>
<path d="M20.4173 19.5764C20.2149 19.9569 18.5778 19.4821 16.7607 18.5159" stroke="#5F5E5E" stroke-width="0.4" stroke-linecap="round"/>
<path d="M20.3192 16.5583C18.4604 15.5494 18.1814 15.4705 16.0236 13.8427" stroke="#5F5E5E" stroke-width="0.4" stroke-linecap="round"/>
<path d="M18.9555 17.6493C17.5808 17.0259 17.3639 16.9965 15.8341 15.8688" stroke="#5F5E5E" stroke-width="0.4" stroke-linecap="round"/>
<path d="M16.0066 16.8819C13.9312 15.7784 12.5403 14.3354 12.8999 13.659C13.1779 13.1362 13.0327 12.8223 14.5409 13.3988" stroke="#5F5E5E" stroke-width="0.4" stroke-linecap="round"/>
<path d="M18.064 14.0789C15.9886 12.9754 14.5358 11.6487 14.8192 11.1157C15.0382 10.7038 16.2303 10.8865 17.7187 11.5003" stroke="#5F5E5E" stroke-width="0.4" stroke-linecap="round"/>
<path d="M18.3191 16.4239C20.3911 17.5256 23.4441 18.6822 23.6665 18.264C23.8383 17.9407 22.9817 17.1313 21.627 16.2716" stroke="#5F5E5E" stroke-width="0.4" stroke-linecap="round"/>
<path d="M12.8618 20.028C11.0054 19.4085 9.40798 19.4926 8.95473 20.345C8.36829 21.4479 9.91931 23.4195 12.419 24.7486C14.9187 26.0777 17.4205 26.2611 18.007 25.1582C18.4602 24.3057 17.6366 22.9344 16.085 21.7418" stroke="#5F5E5E" stroke-linecap="round"/>
<path d="M15.5245 21.1399L17.1432 21.4848L15.8694 22.7586L15.5245 21.1399Z" fill="#5F5E5E"/>
</svg>
