<svg width="85" height="50" viewBox="0 0 85 50" fill="none" xmlns="http://www.w3.org/2000/svg">
<path d="M20.6338 11.514V28.1864M73.0666 13.5981C73.0666 13.0453 72.7972 12.5153 72.3175 12.1244C71.8379 11.7336 71.1873 11.514 70.5089 11.514H67.9512V5.26186C67.9512 4.15641 67.4123 3.09623 66.453 2.31456C65.4937 1.53289 64.1925 1.09375 62.8358 1.09375H11.6818C10.3251 1.09375 9.024 1.53289 8.06467 2.31456C7.10535 3.09623 6.56641 4.15641 6.56641 5.26186V34.4386C6.56641 35.5441 7.10535 36.6042 8.06467 37.3859C9.024 38.1676 10.3251 38.6067 11.6818 38.6067H62.8358C64.1925 38.6067 65.4937 38.1676 66.453 37.3859C67.4123 36.6042 67.9512 35.5441 67.9512 34.4386V28.1864H70.5089C71.1873 28.1864 71.8379 27.9669 72.3175 27.576C72.7972 27.1852 73.0666 26.6551 73.0666 26.1024V13.5981Z" stroke="black" stroke-width="1.6" stroke-linecap="round" stroke-linejoin="round"/>
<path d="M1.28516 15.9451C1.28516 15.9451 2.40531 9.92773 8.16569 9.92773C13.9261 9.92773 14.6538 15.9451 14.6538 15.9451V46.9613H1.28516V15.9451Z" fill="white"/>
<path d="M6.56616 18.6121C5.16555 18.6121 3.82231 19.1685 2.83193 20.1588C1.84155 21.1492 1.28516 22.4925 1.28516 23.8931V47.4816C1.28516 47.6203 1.31248 47.7576 1.36556 47.8858C1.41863 48.0139 1.49643 48.1303 1.59451 48.2284C1.69259 48.3265 1.80902 48.4043 1.93717 48.4574C2.06531 48.5104 2.20266 48.5378 2.34136 48.5378H10.791C10.9297 48.5378 11.067 48.5104 11.1952 48.4574C11.3233 48.4043 11.4397 48.3265 11.5378 48.2284C11.6359 48.1303 11.7137 48.0139 11.7668 47.8858C11.8198 47.7576 11.8472 47.6203 11.8472 47.4816V23.8931C11.8472 22.4925 11.2908 21.1492 10.3004 20.1588C9.31002 19.1685 7.96677 18.6121 6.56616 18.6121ZM6.56616 18.6121V13.3311M1.28516 29.1741H11.8472M6.56616 13.3311H4.80583M6.56616 13.3311H8.3265" stroke="black" stroke-width="1.4" stroke-linecap="round"/>
<circle cx="55.4766" cy="27.9277" r="2.5" stroke="#222222"/>
<circle cx="55.4766" cy="9.92773" r="2.5" stroke="#222222"/>
<circle cx="42.4766" cy="27.9277" r="2.5" stroke="#222222"/>
<circle cx="42.4766" cy="9.92773" r="2.5" stroke="#222222"/>
<circle cx="30.4766" cy="27.9277" r="2.5" stroke="#222222"/>
<circle cx="61.4766" cy="18.9277" r="2.5" stroke="#222222"/>
<circle cx="49.4766" cy="18.9277" r="2.5" stroke="#222222"/>
<circle cx="36.4766" cy="18.9277" r="2.5" stroke="#222222"/>
<circle cx="30.4766" cy="9.92773" r="2.5" stroke="#222222"/>
<rect x="46.4746" y="20.5703" width="33.2917" height="24.2413" rx="1" fill="#F9F9F9"/>
<path d="M50.8344 45.9433C49.9834 45.9433 49.2734 45.6582 48.7044 45.088C48.1354 44.5178 47.8503 43.8078 47.8491 42.958V24.9112C47.8491 24.0614 48.1342 23.3514 48.7044 22.7812C49.2746 22.211 49.984 21.9265 50.8325 21.9277H78.118C78.9678 21.9277 79.6771 22.2122 80.2461 22.7812C80.8151 23.3502 81.1002 24.0602 81.1014 24.9112V42.9599C81.1014 43.8097 80.8163 44.519 80.2461 45.088C79.6759 45.657 78.9659 45.9421 78.1161 45.9433H50.8344ZM50.8344 44.096H78.118C78.4012 44.096 78.6617 43.9771 78.8994 43.7395C79.1371 43.5018 79.2553 43.2413 79.2541 42.958V24.9112C79.2541 24.628 79.1359 24.3675 78.8994 24.1298C78.6617 23.8921 78.4006 23.7732 78.1161 23.7732H50.8344C50.5499 23.7732 50.2888 23.8921 50.0511 24.1298C49.8146 24.3662 49.6964 24.6267 49.6964 24.9112V42.9599C49.6964 43.2431 49.8146 43.503 50.0511 43.7395C50.2876 43.9759 50.548 44.0948 50.8325 44.096M45.5768 49.6381C45.5768 49.6381 44.9062 49.2971 44.9062 48.7144C44.9062 48.1316 45.5768 47.7907 45.5768 47.7907H83.3737C83.3737 47.7907 84.092 48.0094 84.092 48.7144C84.092 49.4194 83.3737 49.6381 83.3737 49.6381H45.5768Z" fill="black"/>
<path d="M49.1758 39.899H56.1438C56.4816 37.3419 57.2613 32.2551 57.6783 32.364C58.0952 32.473 58.9135 37.4327 59.2706 39.899H60.3129C60.5734 36.2828 61.222 29.0413 61.7315 29.005C62.2411 28.9687 63.1405 36.2525 63.5265 39.899H67.6153" stroke="black" stroke-linecap="round"/>
<path d="M65.916 39.899H68.9926C69.2306 37.3419 69.7798 32.2551 70.0734 32.364C70.3671 32.473 70.9435 37.4327 71.195 39.899H71.9291C72.1126 36.2828 72.5694 29.0413 72.9283 29.005C73.2872 28.9687 73.9207 36.2525 74.1926 39.899H79.9354" stroke="black" stroke-linecap="round"/>
</svg>
