<svg width="50" height="54" viewBox="0 0 50 54" fill="none" xmlns="http://www.w3.org/2000/svg">
<rect x="30.4434" y="50.8398" width="19.316" height="2.4145" rx="1.20725" fill="#222222"/>
<path d="M39.9258 32.4695H40.2746C42.0971 32.4695 43.5746 33.947 43.5746 35.7695V50.1394H36.6258V35.7695C36.6258 33.947 38.1032 32.4695 39.9258 32.4695Z" fill="white" stroke="black" stroke-width="1.4"/>
<path d="M42.3239 32.2258V32.8862H37.8797V32.2258C37.8797 30.9986 38.8745 30.0037 40.1018 30.0037C41.329 30.0037 42.3239 30.9986 42.3239 32.2258Z" fill="white" stroke="black" stroke-width="1.4"/>
<rect x="0.957031" y="50.8389" width="19.316" height="2.4145" rx="1.20725" fill="#222222"/>
<path d="M10.4414 32.4695H10.7902C12.6128 32.4695 14.0902 33.947 14.0902 35.7695V50.1394H7.14141V35.7695C7.14141 33.947 8.61887 32.4695 10.4414 32.4695Z" fill="white" stroke="black" stroke-width="1.4"/>
<path d="M12.8375 32.2248V32.8852H8.39336V32.2248C8.39336 30.9976 9.38822 30.0027 10.6154 30.0027C11.8427 30.0027 12.8375 30.9976 12.8375 32.2248Z" fill="white" stroke="black" stroke-width="1.4"/>
<path d="M33.1953 3.01562H33.5441C35.4771 3.01562 37.0441 4.58263 37.0441 6.51562V21.0855H29.6953V6.51563C29.6953 4.58263 31.2623 3.01562 33.1953 3.01562Z" fill="white" stroke="black"/>
<path d="M35.7914 2.97091V3.83132H30.9473V2.97092C30.9473 1.63323 32.0317 0.548828 33.3694 0.548828C34.707 0.548828 35.7914 1.63323 35.7914 2.97091Z" fill="white" stroke="black"/>
<path d="M16.9492 3.01562H17.298C19.231 3.01562 20.798 4.58263 20.798 6.51562V21.0855H13.4492V6.51563C13.4492 4.58263 15.0162 3.01562 16.9492 3.01562Z" fill="white" stroke="black"/>
<path d="M19.5453 2.97091V3.83132H14.7012V2.97092C14.7012 1.63323 15.7856 0.548828 17.1233 0.548828C18.4609 0.548828 19.5453 1.63323 19.5453 2.97091Z" fill="white" stroke="black"/>
<path d="M8.7168 7.59297H41.7633C43.5306 7.59297 44.9633 9.02566 44.9633 10.793V44.625H5.5168V10.793C5.5168 9.02566 6.94949 7.59297 8.7168 7.59297Z" fill="white" stroke="black" stroke-width="1.6"/>
<path d="M19.9715 33.5592C19.7731 33.891 19.8812 34.3208 20.213 34.5193C20.5448 34.7177 20.9746 34.6096 21.173 34.2778L19.9715 33.5592ZM33.7391 12.8673C33.6448 12.4924 33.2644 12.2649 32.8895 12.3592L26.7797 13.8959C26.4048 13.9902 26.1773 14.3706 26.2716 14.7455C26.3659 15.1204 26.7463 15.3479 27.1212 15.2536L32.5521 13.8877L33.918 19.3185C34.0123 19.6935 34.3927 19.921 34.7676 19.8267C35.1425 19.7324 35.37 19.352 35.2757 18.9771L33.7391 12.8673ZM21.173 34.2778L33.661 13.3974L32.4594 12.6788L19.9715 33.5592L21.173 34.2778Z" fill="#222222"/>
<circle cx="26.8168" cy="23.4779" r="6.04331" fill="white" stroke="#222222"/>
<path d="M30.9751 29.675C30.6646 30.2589 28.1523 29.5302 25.3637 28.0474" stroke="#222222" stroke-width="0.4" stroke-linecap="round"/>
<path d="M30.8245 25.0444C27.9721 23.4963 27.5438 23.3752 24.2324 20.877" stroke="#222222" stroke-width="0.4" stroke-linecap="round"/>
<path d="M28.7315 26.7188C26.6219 25.7622 26.289 25.717 23.9414 23.9864" stroke="#222222" stroke-width="0.4" stroke-linecap="round"/>
<path d="M24.2063 25.5406C21.0213 23.8471 18.8867 21.6328 19.4386 20.5948C19.8652 19.7925 19.6424 19.3107 21.9569 20.1954" stroke="#222222" stroke-width="0.4" stroke-linecap="round"/>
<path d="M27.3646 21.2393C24.1796 19.5458 21.9501 17.5099 22.385 16.6919C22.7212 16.0598 24.5505 16.3402 26.8346 17.2821" stroke="#222222" stroke-width="0.4" stroke-linecap="round"/>
<path d="M27.753 24.8382C30.9327 26.5289 35.6178 28.3038 35.9591 27.662C36.2228 27.1659 34.9082 25.9237 32.8294 24.6045" stroke="#222222" stroke-width="0.4" stroke-linecap="round"/>
<path d="M19.3769 30.3674C16.5282 29.4168 14.0767 29.5457 13.3811 30.8539C12.4812 32.5464 14.8614 35.572 18.6975 37.6117C22.5335 39.6513 26.3728 39.9327 27.2727 38.2402C27.9683 36.932 26.7044 34.8276 24.3233 32.9974" stroke="#222222" stroke-width="1.4" stroke-linecap="round"/>
<path d="M23.4626 32.0736L25.9466 32.6029L23.9919 34.5577L23.4626 32.0736Z" fill="#222222"/>
</svg>
