<svg width="63" height="61" viewBox="0 0 63 61" fill="none" xmlns="http://www.w3.org/2000/svg">
<path d="M6.04219 44.3987V15.7615L31.5306 6.57888L56.4906 15.7576V44.3987L31.2664 54.4364L6.04219 44.3987Z" fill="white" stroke="#222222" stroke-width="1.6"/>
<path d="M31.3145 50.1758L31.3145 9.28061" stroke="#222222" stroke-width="1.6" stroke-linecap="round"/>
<path d="M26.7148 21.3887L8.66093 16.9619" stroke="#222222" stroke-width="1.6" stroke-linecap="round"/>
<path d="M31.1021 42.5106L19.8241 31.2326L25.5258 25.5305L25.5259 25.5305L31.1021 19.9546L42.3801 31.2326L36.804 36.8087L31.1021 42.5106Z" stroke="#222222" stroke-width="1.4"/>
<path d="M47.47 33.8582L54.2613 41.3487" stroke="#222222" stroke-linecap="round"/>
<path d="M47.2644 27.1147L54.6548 20.2145" stroke="#222222" stroke-linecap="round"/>
<path d="M14.6392 26.77L7.83622 19.2901" stroke="#222222" stroke-linecap="round"/>
<path d="M15.3984 34.2046L8.45027 41.5499" stroke="#222222" stroke-width="1.4" stroke-linecap="round"/>
<path d="M26.9609 41.0762L8.45139 42.7899" stroke="#222222" stroke-width="1.6" stroke-linecap="round"/>
<path d="M54.2598 42.1328L35.6754 41.7308" stroke="#222222" stroke-width="1.6" stroke-linecap="round"/>
<path d="M54.2422 18.2998L35.9119 21.3886" stroke="#222222" stroke-width="1.6" stroke-linecap="round"/>
<circle cx="44.8984" cy="30.4472" r="4.45699" fill="white" stroke="#222222"/>
<circle cx="17.6347" cy="30.4472" r="4.45699" fill="white" stroke="#222222"/>
<circle cx="31.2675" cy="20.5332" r="4.45699" fill="white" stroke="#222222"/>
<circle cx="31.2675" cy="40.3603" r="4.45699" fill="white" stroke="#222222"/>
<circle cx="57.291" cy="45.3183" r="4.45699" fill="white" stroke="#222222"/>
<circle cx="57.291" cy="15.5761" r="4.45699" fill="white" stroke="#222222"/>
<circle cx="5.24215" cy="45.3183" r="4.45699" fill="white" stroke="#222222"/>
<circle cx="31.2656" cy="55.2314" r="4.45699" fill="white" stroke="#222222"/>
<circle cx="31.2656" cy="5.66207" r="4.45699" fill="white" stroke="#222222"/>
<circle cx="5.24215" cy="15.5761" r="4.45699" fill="white" stroke="#222222"/>
</svg>
