<svg width="55" height="58" viewBox="0 0 55 58" fill="none" xmlns="http://www.w3.org/2000/svg">
<mask id="path-1-inside-1_4243_88365" fill="white">
<path d="M27.0593 1.47863C25.0207 1.47863 23.1168 2.35463 21.494 3.7891C19.8713 5.22392 18.4822 7.22212 17.3242 9.64253C17.0815 10.1496 16.8498 10.6766 16.6282 11.2201C16.0307 11.1307 15.4306 11.0571 14.8287 10.9996C14.1285 10.9337 13.4453 10.8929 12.7816 10.8782C10.7891 10.8335 8.9681 11.0242 7.37207 11.4808C5.24418 12.0896 3.48833 13.2079 2.46904 14.8737C1.44975 16.5398 1.30171 18.5339 1.80687 20.5775C2.31226 22.6209 3.45132 24.7552 5.09371 26.9119C5.43833 27.3643 5.80649 27.8179 6.19503 28.2715C5.81492 28.7143 5.44815 29.1672 5.09517 29.6296C3.45266 31.7862 2.3136 33.9205 1.80832 35.9641C1.30305 38.0076 1.45121 40.0017 2.4705 41.6675C3.48979 43.3336 5.24563 44.4518 7.37352 45.0604C9.50153 45.6694 12.0299 45.8056 14.8301 45.5416C15.4172 45.4862 16.0169 45.4122 16.627 45.3215C16.8435 45.8545 17.076 46.3815 17.3242 46.902C18.4822 49.3227 19.8712 51.3206 21.494 52.7553C23.1167 54.19 25.0208 55.0661 27.0593 55.0661C29.0977 55.0661 31.0017 54.1899 32.6245 52.7553C34.2471 51.3205 35.6362 49.3226 36.7942 46.902C37.0424 46.3816 37.2749 45.8546 37.4915 45.3218C38.1009 45.4122 38.7001 45.4863 39.2866 45.5416C42.087 45.8054 44.6154 45.6693 46.7432 45.0604C48.8713 44.4517 50.6272 43.3334 51.6465 41.6675C52.6658 40.0014 52.8138 38.0075 52.3087 35.9641C51.8033 33.9207 50.6641 31.7863 49.0218 29.6296C48.6687 29.1673 48.3019 28.7144 47.9218 28.2715C48.3025 27.8283 48.6698 27.375 49.0231 26.9121C50.6655 24.7554 51.8046 22.621 52.3099 20.5776C52.8151 18.534 52.667 16.5399 51.6477 14.8738C50.6284 13.208 48.8726 12.0897 46.7447 11.4809C45.1488 11.0243 43.3276 10.8337 41.3354 10.8782C40.6712 10.8929 39.9879 10.9337 39.2878 10.9996C38.7005 11.055 38.1003 11.1293 37.4899 11.22C37.2736 10.6881 37.0414 10.1621 36.7937 9.64253C35.6358 7.22178 34.2467 5.22357 32.624 3.78899C31.0013 2.3544 29.0971 1.47852 27.0588 1.47852L27.0593 1.47863ZM27.0593 3.61848C28.4189 3.61848 29.7521 4.18222 31.0741 5.35102C32.3959 6.5196 33.6583 8.28856 34.7274 10.5231C34.9012 10.8877 35.0666 11.2559 35.2232 11.6273C32.6244 12.1726 29.8719 13.0092 27.0586 14.1271C24.2458 13.0095 21.4937 12.1731 18.8954 11.6278C19.0558 11.2488 19.2206 10.8794 19.3912 10.523C20.4602 8.28833 21.7227 6.51937 23.0446 5.35057C24.3665 4.18199 25.6996 3.61825 27.0595 3.61825L27.0593 3.61848ZM12.0624 13.0149C12.2813 13.0128 12.5037 13.0142 12.7295 13.019C13.3314 13.0316 13.9572 13.0682 14.6034 13.1292C15.0167 13.1682 15.4391 13.218 15.8683 13.2767C15.0692 15.6731 14.4607 18.3406 14.0795 21.1986C11.6468 22.9391 9.50262 24.7706 7.70285 26.6221C7.43946 26.3077 7.18348 25.9878 6.93511 25.6627C5.41891 23.6719 4.42693 21.7557 4.01521 20.0909C3.60349 18.4262 3.7531 17.0549 4.43287 15.9437C5.11264 14.8325 6.29672 14.0248 8.02999 13.5289C9.16759 13.2033 10.5297 13.0279 12.0623 13.0147L12.0624 13.0149ZM42.0547 13.0149C43.5873 13.028 44.9494 13.2035 46.087 13.529C47.8205 14.0248 49.0041 14.8325 49.684 15.9437C50.3638 17.0549 50.5134 18.4263 50.1018 20.0909C49.6904 21.7555 48.6978 23.6719 47.1819 25.6627C46.9336 25.9879 46.6777 26.3078 46.4144 26.6223C44.6148 24.771 42.4713 22.94 40.0393 21.1997C39.6583 18.3413 39.0492 15.6734 38.25 13.2767C38.6787 13.218 39.1006 13.168 39.5135 13.1292C40.1365 13.0697 40.7616 13.0328 41.3876 13.0189C41.6099 13.0141 41.8323 13.0127 42.0547 13.0146V13.0149ZM35.9972 13.6607C36.6003 15.4285 37.0996 17.3791 37.4723 19.4664C36.2684 18.6989 35.0362 17.9719 33.7779 17.2867C32.5205 16.6012 31.2379 15.9579 29.9325 15.358C32.0341 14.6188 34.0736 14.0517 35.9972 13.6609V13.6607ZM18.1212 13.661C20.0445 14.052 22.0837 14.619 24.1848 15.3581C22.8793 15.9581 21.5967 16.6013 20.3394 17.2867C19.0816 17.9716 17.8499 18.6982 16.6464 19.4651C17.0189 17.3784 17.5181 15.4284 18.1212 13.661ZM27.0586 16.462C28.9038 17.2301 30.7769 18.1228 32.644 19.1401C34.5119 20.1579 36.2686 21.2425 37.8964 22.367C38.1143 24.2595 38.2315 26.2372 38.2315 28.2723C38.2315 30.3062 38.1147 32.2832 37.8969 34.1749C36.269 35.2991 34.5126 36.3835 32.6453 37.4011C30.7779 38.4185 28.9043 39.3116 27.0587 40.0797C25.2128 39.3116 23.3392 38.4185 21.4718 37.4011C19.6049 36.3839 17.8491 35.2998 16.2219 34.176C16.0041 32.284 15.887 30.3067 15.887 28.2722C15.887 26.2368 16.0041 24.2588 16.2222 22.3661C17.8498 21.242 19.6058 20.1574 21.4731 19.1401C23.3403 18.1229 25.2134 17.2301 27.0586 16.4622V16.462ZM13.7719 24.1628C13.6698 25.5304 13.619 26.901 13.6193 28.272C13.6193 29.6688 13.6715 31.0399 13.772 32.3788C12.0428 31.031 10.5026 29.6477 9.18191 28.2709C10.5026 26.8943 12.0427 25.5108 13.7719 24.1628ZM40.3468 24.1639C42.0751 25.5117 43.615 26.8946 44.9352 28.2711C43.615 29.6475 42.0751 31.0304 40.3468 32.3779C40.4487 31.0114 40.4996 29.6419 40.4992 28.2721C40.4992 26.8746 40.447 25.5032 40.3467 24.1639H40.3468ZM7.70261 29.9201C9.50262 31.7717 11.6465 33.6028 14.079 35.3433C14.46 38.2009 15.0687 40.8682 15.8676 43.2646C15.4393 43.323 15.0175 43.373 14.6049 43.4119C12.0198 43.6555 9.76485 43.5081 8.03145 43.0123C6.29793 42.5165 5.11434 41.7085 4.43445 40.5973C3.75468 39.486 3.60506 38.1147 4.01666 36.4501C4.42826 34.7854 5.42037 32.8691 6.93656 30.8782C7.1844 30.5535 7.43973 30.2341 7.70261 29.9201ZM46.4143 29.9205C46.6821 30.2411 46.9385 30.5606 47.1803 30.8782C48.6964 32.869 49.6885 34.7853 50.1001 36.45C50.5117 38.1146 50.3624 39.4858 49.6827 40.5972C49.0026 41.7084 47.8188 42.5164 46.0853 43.0122C44.352 43.508 42.0974 43.6554 39.5123 43.4118C39.0908 43.3715 38.6702 43.3224 38.251 43.2647C39.05 40.8678 39.6585 38.1999 40.0396 35.3417C42.4713 33.6016 44.615 31.7711 46.4144 29.9202L46.4143 29.9205ZM37.4728 37.0754C37.1003 39.1625 36.601 41.113 35.998 42.8807C34.0742 42.4899 32.0345 41.9225 29.9327 41.1835C31.2385 40.5832 32.5215 39.9397 33.7793 39.2542C35.0373 38.5691 36.2693 37.8424 37.473 37.0754H37.4728ZM16.6459 37.0766C17.8489 37.8432 19.0803 38.5696 20.3377 39.2542C21.5955 39.9397 22.8785 40.5832 24.1843 41.1835C22.0831 41.9224 20.044 42.4897 18.1204 42.8805C17.5173 41.1132 17.0184 39.163 16.6459 37.0766ZM27.0584 42.4147C29.8724 43.5323 32.625 44.3688 35.2242 44.914C35.0672 45.2865 34.9016 45.6557 34.7274 46.0213C33.6583 48.2557 32.3959 50.0246 31.0739 51.1934C29.7521 52.3621 28.4189 52.9259 27.0593 52.9259C25.6996 52.9259 24.3663 52.3621 23.0445 51.1934C21.7227 50.0247 20.4602 48.2557 19.3912 46.0212C19.217 45.6556 19.0513 45.2864 18.8943 44.9139C21.493 44.3686 24.2453 43.5322 27.0587 42.4147H27.0584Z"/>
</mask>
<path d="M27.0593 1.47863C25.0207 1.47863 23.1168 2.35463 21.494 3.7891C19.8713 5.22392 18.4822 7.22212 17.3242 9.64253C17.0815 10.1496 16.8498 10.6766 16.6282 11.2201C16.0307 11.1307 15.4306 11.0571 14.8287 10.9996C14.1285 10.9337 13.4453 10.8929 12.7816 10.8782C10.7891 10.8335 8.9681 11.0242 7.37207 11.4808C5.24418 12.0896 3.48833 13.2079 2.46904 14.8737C1.44975 16.5398 1.30171 18.5339 1.80687 20.5775C2.31226 22.6209 3.45132 24.7552 5.09371 26.9119C5.43833 27.3643 5.80649 27.8179 6.19503 28.2715C5.81492 28.7143 5.44815 29.1672 5.09517 29.6296C3.45266 31.7862 2.3136 33.9205 1.80832 35.9641C1.30305 38.0076 1.45121 40.0017 2.4705 41.6675C3.48979 43.3336 5.24563 44.4518 7.37352 45.0604C9.50153 45.6694 12.0299 45.8056 14.8301 45.5416C15.4172 45.4862 16.0169 45.4122 16.627 45.3215C16.8435 45.8545 17.076 46.3815 17.3242 46.902C18.4822 49.3227 19.8712 51.3206 21.494 52.7553C23.1167 54.19 25.0208 55.0661 27.0593 55.0661C29.0977 55.0661 31.0017 54.1899 32.6245 52.7553C34.2471 51.3205 35.6362 49.3226 36.7942 46.902C37.0424 46.3816 37.2749 45.8546 37.4915 45.3218C38.1009 45.4122 38.7001 45.4863 39.2866 45.5416C42.087 45.8054 44.6154 45.6693 46.7432 45.0604C48.8713 44.4517 50.6272 43.3334 51.6465 41.6675C52.6658 40.0014 52.8138 38.0075 52.3087 35.9641C51.8033 33.9207 50.6641 31.7863 49.0218 29.6296C48.6687 29.1673 48.3019 28.7144 47.9218 28.2715C48.3025 27.8283 48.6698 27.375 49.0231 26.9121C50.6655 24.7554 51.8046 22.621 52.3099 20.5776C52.8151 18.534 52.667 16.5399 51.6477 14.8738C50.6284 13.208 48.8726 12.0897 46.7447 11.4809C45.1488 11.0243 43.3276 10.8337 41.3354 10.8782C40.6712 10.8929 39.9879 10.9337 39.2878 10.9996C38.7005 11.055 38.1003 11.1293 37.4899 11.22C37.2736 10.6881 37.0414 10.1621 36.7937 9.64253C35.6358 7.22178 34.2467 5.22357 32.624 3.78899C31.0013 2.3544 29.0971 1.47852 27.0588 1.47852L27.0593 1.47863ZM27.0593 3.61848C28.4189 3.61848 29.7521 4.18222 31.0741 5.35102C32.3959 6.5196 33.6583 8.28856 34.7274 10.5231C34.9012 10.8877 35.0666 11.2559 35.2232 11.6273C32.6244 12.1726 29.8719 13.0092 27.0586 14.1271C24.2458 13.0095 21.4937 12.1731 18.8954 11.6278C19.0558 11.2488 19.2206 10.8794 19.3912 10.523C20.4602 8.28833 21.7227 6.51937 23.0446 5.35057C24.3665 4.18199 25.6996 3.61825 27.0595 3.61825L27.0593 3.61848ZM12.0624 13.0149C12.2813 13.0128 12.5037 13.0142 12.7295 13.019C13.3314 13.0316 13.9572 13.0682 14.6034 13.1292C15.0167 13.1682 15.4391 13.218 15.8683 13.2767C15.0692 15.6731 14.4607 18.3406 14.0795 21.1986C11.6468 22.9391 9.50262 24.7706 7.70285 26.6221C7.43946 26.3077 7.18348 25.9878 6.93511 25.6627C5.41891 23.6719 4.42693 21.7557 4.01521 20.0909C3.60349 18.4262 3.7531 17.0549 4.43287 15.9437C5.11264 14.8325 6.29672 14.0248 8.02999 13.5289C9.16759 13.2033 10.5297 13.0279 12.0623 13.0147L12.0624 13.0149ZM42.0547 13.0149C43.5873 13.028 44.9494 13.2035 46.087 13.529C47.8205 14.0248 49.0041 14.8325 49.684 15.9437C50.3638 17.0549 50.5134 18.4263 50.1018 20.0909C49.6904 21.7555 48.6978 23.6719 47.1819 25.6627C46.9336 25.9879 46.6777 26.3078 46.4144 26.6223C44.6148 24.771 42.4713 22.94 40.0393 21.1997C39.6583 18.3413 39.0492 15.6734 38.25 13.2767C38.6787 13.218 39.1006 13.168 39.5135 13.1292C40.1365 13.0697 40.7616 13.0328 41.3876 13.0189C41.6099 13.0141 41.8323 13.0127 42.0547 13.0146V13.0149ZM35.9972 13.6607C36.6003 15.4285 37.0996 17.3791 37.4723 19.4664C36.2684 18.6989 35.0362 17.9719 33.7779 17.2867C32.5205 16.6012 31.2379 15.9579 29.9325 15.358C32.0341 14.6188 34.0736 14.0517 35.9972 13.6609V13.6607ZM18.1212 13.661C20.0445 14.052 22.0837 14.619 24.1848 15.3581C22.8793 15.9581 21.5967 16.6013 20.3394 17.2867C19.0816 17.9716 17.8499 18.6982 16.6464 19.4651C17.0189 17.3784 17.5181 15.4284 18.1212 13.661ZM27.0586 16.462C28.9038 17.2301 30.7769 18.1228 32.644 19.1401C34.5119 20.1579 36.2686 21.2425 37.8964 22.367C38.1143 24.2595 38.2315 26.2372 38.2315 28.2723C38.2315 30.3062 38.1147 32.2832 37.8969 34.1749C36.269 35.2991 34.5126 36.3835 32.6453 37.4011C30.7779 38.4185 28.9043 39.3116 27.0587 40.0797C25.2128 39.3116 23.3392 38.4185 21.4718 37.4011C19.6049 36.3839 17.8491 35.2998 16.2219 34.176C16.0041 32.284 15.887 30.3067 15.887 28.2722C15.887 26.2368 16.0041 24.2588 16.2222 22.3661C17.8498 21.242 19.6058 20.1574 21.4731 19.1401C23.3403 18.1229 25.2134 17.2301 27.0586 16.4622V16.462ZM13.7719 24.1628C13.6698 25.5304 13.619 26.901 13.6193 28.272C13.6193 29.6688 13.6715 31.0399 13.772 32.3788C12.0428 31.031 10.5026 29.6477 9.18191 28.2709C10.5026 26.8943 12.0427 25.5108 13.7719 24.1628ZM40.3468 24.1639C42.0751 25.5117 43.615 26.8946 44.9352 28.2711C43.615 29.6475 42.0751 31.0304 40.3468 32.3779C40.4487 31.0114 40.4996 29.6419 40.4992 28.2721C40.4992 26.8746 40.447 25.5032 40.3467 24.1639H40.3468ZM7.70261 29.9201C9.50262 31.7717 11.6465 33.6028 14.079 35.3433C14.46 38.2009 15.0687 40.8682 15.8676 43.2646C15.4393 43.323 15.0175 43.373 14.6049 43.4119C12.0198 43.6555 9.76485 43.5081 8.03145 43.0123C6.29793 42.5165 5.11434 41.7085 4.43445 40.5973C3.75468 39.486 3.60506 38.1147 4.01666 36.4501C4.42826 34.7854 5.42037 32.8691 6.93656 30.8782C7.1844 30.5535 7.43973 30.2341 7.70261 29.9201ZM46.4143 29.9205C46.6821 30.2411 46.9385 30.5606 47.1803 30.8782C48.6964 32.869 49.6885 34.7853 50.1001 36.45C50.5117 38.1146 50.3624 39.4858 49.6827 40.5972C49.0026 41.7084 47.8188 42.5164 46.0853 43.0122C44.352 43.508 42.0974 43.6554 39.5123 43.4118C39.0908 43.3715 38.6702 43.3224 38.251 43.2647C39.05 40.8678 39.6585 38.1999 40.0396 35.3417C42.4713 33.6016 44.615 31.7711 46.4144 29.9202L46.4143 29.9205ZM37.4728 37.0754C37.1003 39.1625 36.601 41.113 35.998 42.8807C34.0742 42.4899 32.0345 41.9225 29.9327 41.1835C31.2385 40.5832 32.5215 39.9397 33.7793 39.2542C35.0373 38.5691 36.2693 37.8424 37.473 37.0754H37.4728ZM16.6459 37.0766C17.8489 37.8432 19.0803 38.5696 20.3377 39.2542C21.5955 39.9397 22.8785 40.5832 24.1843 41.1835C22.0831 41.9224 20.044 42.4897 18.1204 42.8805C17.5173 41.1132 17.0184 39.163 16.6459 37.0766ZM27.0584 42.4147C29.8724 43.5323 32.625 44.3688 35.2242 44.914C35.0672 45.2865 34.9016 45.6557 34.7274 46.0213C33.6583 48.2557 32.3959 50.0246 31.0739 51.1934C29.7521 52.3621 28.4189 52.9259 27.0593 52.9259C25.6996 52.9259 24.3663 52.3621 23.0445 51.1934C21.7227 50.0247 20.4602 48.2557 19.3912 46.0212C19.217 45.6556 19.0513 45.2864 18.8943 44.9139C21.493 44.3686 24.2453 43.5322 27.0587 42.4147H27.0584Z" fill="#222222" stroke="#F1F5F8" stroke-width="0.4" mask="url(#path-1-inside-1_4243_88365)"/>
<path d="M53.749 21.9401C53.749 23.4431 52.4491 24.7103 50.7837 24.7103C49.1183 24.7103 47.8184 23.4431 47.8184 21.9401C47.8184 20.4371 49.1183 19.1699 50.7837 19.1699C52.4491 19.1699 53.749 20.4371 53.749 21.9401Z" fill="white" stroke="#222222"/>
<path d="M26.5576 3.97526C26.5576 5.47828 25.2577 6.74545 23.5923 6.74545C21.9269 6.74545 20.627 5.47828 20.627 3.97526C20.627 2.47224 21.9269 1.20508 23.5923 1.20508C25.2577 1.20508 26.5576 2.47224 26.5576 3.97526Z" fill="white" stroke="#222222"/>
<path d="M6.71193 33.3864C6.71193 34.8894 5.41201 36.1566 3.74659 36.1566C2.08118 36.1566 0.78125 34.8894 0.78125 33.3864C0.78125 31.8834 2.08118 30.6162 3.74659 30.6162C5.41201 30.6162 6.71193 31.8834 6.71193 33.3864Z" fill="white" stroke="#222222"/>
<path d="M32.9825 28.4798C32.9825 31.7889 30.131 34.5202 26.5518 34.5202C22.9725 34.5202 20.1211 31.7889 20.1211 28.4798C20.1211 25.1707 22.9725 22.4395 26.5518 22.4395C30.131 22.4395 32.9825 25.1707 32.9825 28.4798Z" fill="white" stroke="#222222"/>
<path d="M31.5479 54.5456C31.5479 56.0486 30.2479 57.3158 28.5825 57.3158C26.9171 57.3158 25.6172 56.0486 25.6172 54.5456C25.6172 53.0426 26.9171 51.7754 28.5825 51.7754C30.2479 51.7754 31.5479 53.0426 31.5479 54.5456Z" fill="white" stroke="#222222"/>
</svg>
