<svg width="50" height="55" viewBox="0 0 50 55" fill="none" xmlns="http://www.w3.org/2000/svg">
<rect x="10.4699" y="1.02656" width="38.4" height="50.4" rx="1.2" fill="white" stroke="#222222" stroke-width="1.6"/>
<path d="M11.9992 27.946L11.9992 28.746L12.7992 28.746L16.037 28.746L16.037 53.4549L1.48555 53.4549L1.48555 28.746L4.72342 28.746L5.52342 28.746L5.52342 27.946L5.52342 24.3612L11.9992 24.3612L11.9992 27.946Z" fill="white" stroke="#222222" stroke-width="1.6"/>
<path d="M4.49727 48.048L13.0269 48.048L13.0269 49.9266L4.49727 49.9266L4.49727 48.048Z" fill="#222222" stroke="#F1F5F8" stroke-width="0.6"/>
<path d="M11.0696 33.7119L6.45508 39.1841H11.0696L6.45508 44.2885" stroke="black" stroke-linecap="round"/>
<circle cx="40.4512" cy="17.8594" r="2" stroke="#222222"/>
<circle cx="34.6699" cy="23.6104" r="2" stroke="#222222"/>
<circle cx="28.6699" cy="17.6104" r="2" stroke="#222222"/>
<path d="M30.4238 19.1973L32.8032 21.7641" stroke="#222222" stroke-linecap="round"/>
<path d="M36.916 22.1963L38.9855 20.0244" stroke="#222222" stroke-linecap="round"/>
<path d="M25.1621 21.7637L27.1773 19.5413" stroke="#222222" stroke-linecap="round"/>
<circle cx="23.6699" cy="23.6104" r="2" stroke="#222222"/>
<path d="M39.4238 44.9082L39.4238 32.9082" stroke="#222222" stroke-width="1.4" stroke-linecap="round"/>
<path d="M30.4238 44.9082L30.4238 30.9082" stroke="#222222" stroke-width="1.4" stroke-linecap="round"/>
<path d="M34.4238 44.9082L34.4238 36.9082" stroke="#222222" stroke-width="1.4" stroke-linecap="round"/>
<path d="M25.4238 44.9082L25.4238 36.9082" stroke="#222222" stroke-width="1.4" stroke-linecap="round"/>
<path d="M13.4258 11.5684H22.0454" stroke="#222222" stroke-width="1.4" stroke-linecap="round"/>
<path d="M13.4258 7.56836H22.0454" stroke="#222222" stroke-width="1.4" stroke-linecap="round"/>
</svg>
